<?xml version="1.0" encoding="UTF-8" standalone="no"?>
<!DOCTYPE svg PUBLIC "-//W3C//DTD SVG 1.1//EN"
 "http://www.w3.org/Graphics/SVG/1.1/DTD/svg11.dtd">
<!-- Generated by graphviz version 2.43.0 (0)
 -->
<!-- Title: %3 Pages: 1 -->
<svg width="1144pt" height="238pt"
 viewBox="0.00 0.00 1144.00 237.74" xmlns="http://www.w3.org/2000/svg" xmlns:xlink="http://www.w3.org/1999/xlink">
<g id="graph0" class="graph" transform="scale(1 1) rotate(0) translate(36 201.74)">
<title>%3</title>
<polygon fill="dimgray" stroke="transparent" points="-36,36 -36,-201.74 1108,-201.74 1108,36 -36,36"/>
<text text-anchor="middle" x="536" y="-150.54" font-family="Helvetica,sans-Serif" font-size="14.00">Sweep&#39;s Plan &amp; Progress</text>
<!-- start -->
<g id="node1" class="node">
<title>start</title>
</g>
<!-- 484a7297&#45;9508&#45;405a&#45;8850&#45;175aabcc2ace -->
<g id="node3" class="node">
<title>484a7297&#45;9508&#45;405a&#45;8850&#45;175aabcc2ace</title>
<ellipse fill="#0ee832" stroke="black" cx="229" cy="-99.87" rx="107.46" ry="26.74"/>
<text text-anchor="middle" x="229" y="-103.67" font-family="Helvetica,sans-Serif" font-size="14.00">✓ Modify</text>
<text text-anchor="middle" x="229" y="-88.67" font-family="Helvetica,sans-Serif" font-size="14.00">arpg_mechanics.py</text>
</g>
<!-- start&#45;&gt;484a7297&#45;9508&#45;405a&#45;8850&#45;175aabcc2ace -->
<g id="edge6" class="edge">
<title>start&#45;&gt;484a7297&#45;9508&#45;405a&#45;8850&#45;175aabcc2ace</title>
<path fill="none" stroke="black" d="M70.71,-99.87C74.21,-99.87 90.32,-99.87 111.01,-99.87"/>
<polygon fill="black" stroke="black" points="111.15,-103.37 121.15,-99.87 111.15,-96.37 111.15,-103.37"/>
<text text-anchor="middle" x="96.01" y="-106.67" font-family="Helvetica,sans-Serif" font-size="14.00">Start</text>
</g>
<!-- end -->
<g id="node2" class="node">
<title>end</title>
</g>
<!-- e3233cc5&#45;611e&#45;4409&#45;9843&#45;2ffac2be70bf -->
<g id="node4" class="node">
<title>e3233cc5&#45;611e&#45;4409&#45;9843&#45;2ffac2be70bf</title>
<ellipse fill="#0ee832" stroke="black" cx="536" cy="-99.87" rx="107.46" ry="26.74"/>
<text text-anchor="middle" x="536" y="-103.67" font-family="Helvetica,sans-Serif" font-size="14.00">✓ Modify</text>
<text text-anchor="middle" x="536" y="-88.67" font-family="Helvetica,sans-Serif" font-size="14.00">arpg_mechanics.py</text>
</g>
<!-- 484a7297&#45;9508&#45;405a&#45;8850&#45;175aabcc2ace&#45;&gt;e3233cc5&#45;611e&#45;4409&#45;9843&#45;2ffac2be70bf -->
<g id="edge2" class="edge">
<title>484a7297&#45;9508&#45;405a&#45;8850&#45;175aabcc2ace&#45;&gt;e3233cc5&#45;611e&#45;4409&#45;9843&#45;2ffac2be70bf</title>
<path fill="none" stroke="black" d="M336.63,-99.87C363.8,-99.87 390.96,-99.87 418.13,-99.87"/>
<polygon fill="black" stroke="black" points="418.14,-103.37 428.14,-99.87 418.14,-96.37 418.14,-103.37"/>
</g>
<!-- 8dd4109d&#45;c7d8&#45;45fe&#45;bfbf&#45;5fc968bccc2d -->
<g id="node6" class="node">
<title>8dd4109d&#45;c7d8&#45;45fe&#45;bfbf&#45;5fc968bccc2d</title>
<polygon fill="#0ee832" stroke="black" points="344,-36 0,-36 0,0 344,0 344,-36"/>
<text text-anchor="middle" x="172" y="-14.3" font-family="Helvetica,sans-Serif" font-size="14.00">✓ Run GitHub Actions for `arpg_mechanics.py`</text>
</g>
<!-- 484a7297&#45;9508&#45;405a&#45;8850&#45;175aabcc2ace&#45;&gt;8dd4109d&#45;c7d8&#45;45fe&#45;bfbf&#45;5fc968bccc2d -->
<g id="edge1" class="edge">
<title>484a7297&#45;9508&#45;405a&#45;8850&#45;175aabcc2ace&#45;&gt;8dd4109d&#45;c7d8&#45;45fe&#45;bfbf&#45;5fc968bccc2d</title>
<path fill="none" stroke="black" stroke-dasharray="5,2" d="M210.65,-73.16C204.14,-64.04 196.82,-53.77 190.31,-44.65"/>
<polygon fill="black" stroke="black" points="193.03,-42.44 184.37,-36.34 187.33,-46.51 193.03,-42.44"/>
</g>
<!-- 3304a67d&#45;600a&#45;4ec8&#45;b173&#45;8bda85f494ee -->
<g id="node5" class="node">
<title>3304a67d&#45;600a&#45;4ec8&#45;b173&#45;8bda85f494ee</title>
<ellipse fill="white" stroke="black" cx="844" cy="-99.87" rx="108.38" ry="26.74"/>
<text text-anchor="middle" x="844" y="-103.67" font-family="Helvetica,sans-Serif" font-size="14.00">▶ Create</text>
<text text-anchor="middle" x="844" y="-88.67" font-family="Helvetica,sans-Serif" font-size="14.00">graph_generator.py</text>
</g>
<!-- e3233cc5&#45;611e&#45;4409&#45;9843&#45;2ffac2be70bf&#45;&gt;3304a67d&#45;600a&#45;4ec8&#45;b173&#45;8bda85f494ee -->
<g id="edge4" class="edge">
<title>e3233cc5&#45;611e&#45;4409&#45;9843&#45;2ffac2be70bf&#45;&gt;3304a67d&#45;600a&#45;4ec8&#45;b173&#45;8bda85f494ee</title>
<path fill="none" stroke="black" d="M643.68,-99.87C670.98,-99.87 698.27,-99.87 725.57,-99.87"/>
<polygon fill="black" stroke="black" points="725.62,-103.37 735.62,-99.87 725.62,-96.37 725.62,-103.37"/>
</g>
<!-- 5eb6f9b9&#45;72e1&#45;481a&#45;8328&#45;ef0ba18ad729 -->
<g id="node7" class="node">
<title>5eb6f9b9&#45;72e1&#45;481a&#45;8328&#45;ef0ba18ad729</title>
<polygon fill="yellow" stroke="black" points="709.5,-36 362.5,-36 362.5,0 709.5,0 709.5,-36"/>
<text text-anchor="middle" x="536" y="-14.3" font-family="Helvetica,sans-Serif" font-size="14.00">⋯ Run GitHub Actions for `arpg_mechanics.py`</text>
</g>
<!-- e3233cc5&#45;611e&#45;4409&#45;9843&#45;2ffac2be70bf&#45;&gt;5eb6f9b9&#45;72e1&#45;481a&#45;8328&#45;ef0ba18ad729 -->
<g id="edge3" class="edge">
<title>e3233cc5&#45;611e&#45;4409&#45;9843&#45;2ffac2be70bf&#45;&gt;5eb6f9b9&#45;72e1&#45;481a&#45;8328&#45;ef0ba18ad729</title>
<path fill="none" stroke="black" stroke-dasharray="5,2" d="M536,-72.72C536,-64.27 536,-54.89 536,-46.36"/>
<polygon fill="black" stroke="black" points="539.5,-46.15 536,-36.15 532.5,-46.15 539.5,-46.15"/>
</g>
<!-- 3304a67d&#45;600a&#45;4ec8&#45;b173&#45;8bda85f494ee&#45;&gt;end -->
<g id="edge7" class="edge">
<title>3304a67d&#45;600a&#45;4ec8&#45;b173&#45;8bda85f494ee&#45;&gt;end</title>
<path fill="none" stroke="black" d="M952.41,-99.87C971.59,-99.87 988.76,-99.87 999.26,-99.87"/>
<polygon fill="black" stroke="black" points="999.33,-103.37 1009.33,-99.87 999.33,-96.37 999.33,-103.37"/>
<text text-anchor="middle" x="980.84" y="-106.67" font-family="Helvetica,sans-Serif" font-size="14.00">Finish</text>
</g>
<!-- bbda4d0b&#45;1e7c&#45;4c5e&#45;9ccb&#45;ba29d2a1d012 -->
<g id="node8" class="node">
<title>bbda4d0b&#45;1e7c&#45;4c5e&#45;9ccb&#45;ba29d2a1d012</title>
<polygon fill="white" stroke="black" points="1072,-36 728,-36 728,0 1072,0 1072,-36"/>
<text text-anchor="middle" x="900" y="-14.3" font-family="Helvetica,sans-Serif" font-size="14.00">▶ Run GitHub Actions for `graph_generator.py`</text>
</g>
<!-- 3304a67d&#45;600a&#45;4ec8&#45;b173&#45;8bda85f494ee&#45;&gt;bbda4d0b&#45;1e7c&#45;4c5e&#45;9ccb&#45;ba29d2a1d012 -->
<g id="edge5" class="edge">
<title>3304a67d&#45;600a&#45;4ec8&#45;b173&#45;8bda85f494ee&#45;&gt;bbda4d0b&#45;1e7c&#45;4c5e&#45;9ccb&#45;ba29d2a1d012</title>
<path fill="none" stroke="black" stroke-dasharray="5,2" d="M862.03,-73.16C868.42,-64.04 875.62,-53.77 882.01,-44.65"/>
<polygon fill="black" stroke="black" points="884.97,-46.53 887.84,-36.34 879.24,-42.52 884.97,-46.53"/>
</g>
</g>
</svg>
