<?xml version="1.0" encoding="UTF-8" standalone="no"?>
<!DOCTYPE svg PUBLIC "-//W3C//DTD SVG 1.1//EN"
 "http://www.w3.org/Graphics/SVG/1.1/DTD/svg11.dtd">
<!-- Generated by graphviz version 2.43.0 (0)
 -->
<!-- Title: %3 Pages: 1 -->
<svg width="416pt" height="238pt"
 viewBox="0.00 0.00 416.00 237.74" xmlns="http://www.w3.org/2000/svg" xmlns:xlink="http://www.w3.org/1999/xlink">
<g id="graph0" class="graph" transform="scale(1 1) rotate(0) translate(36 201.74)">
<title>%3</title>
<polygon fill="dimgray" stroke="transparent" points="-36,36 -36,-201.74 380,-201.74 380,36 -36,36"/>
<text text-anchor="middle" x="172" y="-150.54" font-family="Helvetica,sans-Serif" font-size="14.00">Sweep&#39;s Plan &amp; Progress</text>
<!-- start -->
<g id="node1" class="node">
<title>start</title>
</g>
<!-- db24c4c5&#45;cf84&#45;4398&#45;b526&#45;46603c6ae6c6 -->
<g id="node3" class="node">
<title>db24c4c5&#45;cf84&#45;4398&#45;b526&#45;46603c6ae6c6</title>
<ellipse fill="#0ee832" stroke="black" cx="172" cy="-99.87" rx="107.46" ry="26.74"/>
<text text-anchor="middle" x="172" y="-103.67" font-family="Helvetica,sans-Serif" font-size="14.00">✓ Modify</text>
<text text-anchor="middle" x="172" y="-88.67" font-family="Helvetica,sans-Serif" font-size="14.00">arpg_mechanics.py</text>
</g>
<!-- start&#45;&gt;db24c4c5&#45;cf84&#45;4398&#45;b526&#45;46603c6ae6c6 -->
<g id="edge2" class="edge">
<title>start&#45;&gt;db24c4c5&#45;cf84&#45;4398&#45;b526&#45;46603c6ae6c6</title>
<path fill="none" stroke="black" d="M13.71,-99.87C17.21,-99.87 33.32,-99.87 54.01,-99.87"/>
<polygon fill="black" stroke="black" points="54.15,-103.37 64.15,-99.87 54.15,-96.37 54.15,-103.37"/>
<text text-anchor="middle" x="39.01" y="-106.67" font-family="Helvetica,sans-Serif" font-size="14.00">Start</text>
</g>
<!-- end -->
<g id="node2" class="node">
<title>end</title>
</g>
<!-- db24c4c5&#45;cf84&#45;4398&#45;b526&#45;46603c6ae6c6&#45;&gt;end -->
<g id="edge3" class="edge">
<title>db24c4c5&#45;cf84&#45;4398&#45;b526&#45;46603c6ae6c6&#45;&gt;end</title>
<path fill="none" stroke="black" d="M279.75,-99.87C298.82,-99.87 315.89,-99.87 326.33,-99.87"/>
<polygon fill="black" stroke="black" points="326.33,-103.37 336.33,-99.87 326.33,-96.37 326.33,-103.37"/>
<text text-anchor="middle" x="307.99" y="-106.67" font-family="Helvetica,sans-Serif" font-size="14.00">Finish</text>
</g>
<!-- 0e73437e&#45;39e5&#45;4bf0&#45;91f7&#45;7abc866b00e6 -->
<g id="node4" class="node">
<title>0e73437e&#45;39e5&#45;4bf0&#45;91f7&#45;7abc866b00e6</title>
<polygon fill="#0ee832" stroke="black" points="344,-36 0,-36 0,0 344,0 344,-36"/>
<text text-anchor="middle" x="172" y="-14.3" font-family="Helvetica,sans-Serif" font-size="14.00">✓ Run GitHub Actions for `arpg_mechanics.py`</text>
</g>
<!-- db24c4c5&#45;cf84&#45;4398&#45;b526&#45;46603c6ae6c6&#45;&gt;0e73437e&#45;39e5&#45;4bf0&#45;91f7&#45;7abc866b00e6 -->
<g id="edge1" class="edge">
<title>db24c4c5&#45;cf84&#45;4398&#45;b526&#45;46603c6ae6c6&#45;&gt;0e73437e&#45;39e5&#45;4bf0&#45;91f7&#45;7abc866b00e6</title>
<path fill="none" stroke="black" stroke-dasharray="5,2" d="M172,-72.72C172,-64.27 172,-54.89 172,-46.36"/>
<polygon fill="black" stroke="black" points="175.5,-46.15 172,-36.15 168.5,-46.15 175.5,-46.15"/>
</g>
</g>
</svg>
