<?xml version="1.0" encoding="UTF-8" standalone="no"?>
<!DOCTYPE svg PUBLIC "-//W3C//DTD SVG 1.1//EN"
 "http://www.w3.org/Graphics/SVG/1.1/DTD/svg11.dtd">
<!-- Generated by graphviz version 2.43.0 (0)
 -->
<!-- Title: %3 Pages: 1 -->
<svg width="1356pt" height="238pt"
 viewBox="0.00 0.00 1355.50 237.74" xmlns="http://www.w3.org/2000/svg" xmlns:xlink="http://www.w3.org/1999/xlink">
<g id="graph0" class="graph" transform="scale(1 1) rotate(0) translate(36 201.74)">
<title>%3</title>
<polygon fill="dimgray" stroke="transparent" points="-36,36 -36,-201.74 1319.5,-201.74 1319.5,36 -36,36"/>
<text text-anchor="middle" x="641.75" y="-150.54" font-family="Helvetica,sans-Serif" font-size="14.00">Sweep&#39;s Plan &amp; Progress</text>
<!-- start -->
<g id="node1" class="node">
<title>start</title>
</g>
<!-- e2355444&#45;75d7&#45;4313&#45;ad19&#45;3cdcd6023742 -->
<g id="node3" class="node">
<title>e2355444&#45;75d7&#45;4313&#45;ad19&#45;3cdcd6023742</title>
<ellipse fill="#0ee832" stroke="black" cx="210" cy="-99.87" rx="68.68" ry="26.74"/>
<text text-anchor="middle" x="210" y="-103.67" font-family="Helvetica,sans-Serif" font-size="14.00">✓ Create</text>
<text text-anchor="middle" x="210" y="-88.67" font-family="Helvetica,sans-Serif" font-size="14.00">scenario.py</text>
</g>
<!-- start&#45;&gt;e2355444&#45;75d7&#45;4313&#45;ad19&#45;3cdcd6023742 -->
<g id="edge8" class="edge">
<title>start&#45;&gt;e2355444&#45;75d7&#45;4313&#45;ad19&#45;3cdcd6023742</title>
<path fill="none" stroke="black" d="M89.77,-99.87C93.56,-99.87 110.81,-99.87 131.11,-99.87"/>
<polygon fill="black" stroke="black" points="131.28,-103.37 141.28,-99.87 131.28,-96.37 131.28,-103.37"/>
<text text-anchor="middle" x="115.46" y="-106.67" font-family="Helvetica,sans-Serif" font-size="14.00">Start</text>
</g>
<!-- end -->
<g id="node2" class="node">
<title>end</title>
</g>
<!-- 0e1c4148&#45;f31b&#45;4f19&#45;b76e&#45;32af21685e7f -->
<g id="node4" class="node">
<title>0e1c4148&#45;f31b&#45;4f19&#45;b76e&#45;32af21685e7f</title>
<ellipse fill="#0ee832" stroke="black" cx="435" cy="-99.87" rx="55.72" ry="26.74"/>
<text text-anchor="middle" x="435" y="-103.67" font-family="Helvetica,sans-Serif" font-size="14.00">✓ Modify</text>
<text text-anchor="middle" x="435" y="-88.67" font-family="Helvetica,sans-Serif" font-size="14.00">init.py</text>
</g>
<!-- e2355444&#45;75d7&#45;4313&#45;ad19&#45;3cdcd6023742&#45;&gt;0e1c4148&#45;f31b&#45;4f19&#45;b76e&#45;32af21685e7f -->
<g id="edge2" class="edge">
<title>e2355444&#45;75d7&#45;4313&#45;ad19&#45;3cdcd6023742&#45;&gt;0e1c4148&#45;f31b&#45;4f19&#45;b76e&#45;32af21685e7f</title>
<path fill="none" stroke="black" d="M278.99,-99.87C308.92,-99.87 338.85,-99.87 368.79,-99.87"/>
<polygon fill="black" stroke="black" points="368.94,-103.37 378.94,-99.87 368.94,-96.37 368.94,-103.37"/>
</g>
<!-- 5e73ef0a&#45;c82e&#45;4538&#45;bfd9&#45;35ae45e40d4e -->
<g id="node7" class="node">
<title>5e73ef0a&#45;c82e&#45;4538&#45;bfd9&#45;35ae45e40d4e</title>
<polygon fill="#0ee832" stroke="black" points="290,-36 0,-36 0,0 290,0 290,-36"/>
<text text-anchor="middle" x="145" y="-14.3" font-family="Helvetica,sans-Serif" font-size="14.00">✓ Run GitHub Actions for `scenario.py`</text>
</g>
<!-- e2355444&#45;75d7&#45;4313&#45;ad19&#45;3cdcd6023742&#45;&gt;5e73ef0a&#45;c82e&#45;4538&#45;bfd9&#45;35ae45e40d4e -->
<g id="edge1" class="edge">
<title>e2355444&#45;75d7&#45;4313&#45;ad19&#45;3cdcd6023742&#45;&gt;5e73ef0a&#45;c82e&#45;4538&#45;bfd9&#45;35ae45e40d4e</title>
<path fill="none" stroke="black" stroke-dasharray="5,2" d="M189.79,-74.04C182.07,-64.54 173.25,-53.72 165.5,-44.19"/>
<polygon fill="black" stroke="black" points="168.04,-41.77 159.02,-36.22 162.61,-46.19 168.04,-41.77"/>
</g>
<!-- 432cecc9&#45;9001&#45;45eb&#45;a424&#45;0874ba5f5642 -->
<g id="node5" class="node">
<title>432cecc9&#45;9001&#45;45eb&#45;a424&#45;0874ba5f5642</title>
<ellipse fill="#0ee832" stroke="black" cx="751" cy="-99.87" rx="104.8" ry="26.74"/>
<text text-anchor="middle" x="751" y="-103.67" font-family="Helvetica,sans-Serif" font-size="14.00">✓ Modify</text>
<text text-anchor="middle" x="751" y="-88.67" font-family="Helvetica,sans-Serif" font-size="14.00">target&#45;projectile.py</text>
</g>
<!-- 0e1c4148&#45;f31b&#45;4f19&#45;b76e&#45;32af21685e7f&#45;&gt;432cecc9&#45;9001&#45;45eb&#45;a424&#45;0874ba5f5642 -->
<g id="edge4" class="edge">
<title>0e1c4148&#45;f31b&#45;4f19&#45;b76e&#45;32af21685e7f&#45;&gt;432cecc9&#45;9001&#45;45eb&#45;a424&#45;0874ba5f5642</title>
<path fill="none" stroke="black" d="M491.16,-99.87C539.41,-99.87 587.66,-99.87 635.91,-99.87"/>
<polygon fill="black" stroke="black" points="636.2,-103.37 646.2,-99.87 636.2,-96.37 636.2,-103.37"/>
</g>
<!-- 7b4909f3&#45;1e17&#45;4641&#45;b974&#45;611e06f22cb2 -->
<g id="node8" class="node">
<title>7b4909f3&#45;1e17&#45;4641&#45;b974&#45;611e06f22cb2</title>
<polygon fill="#0ee832" stroke="black" points="561.5,-36 308.5,-36 308.5,0 561.5,0 561.5,-36"/>
<text text-anchor="middle" x="435" y="-14.3" font-family="Helvetica,sans-Serif" font-size="14.00">✓ Run GitHub Actions for `init.py`</text>
</g>
<!-- 0e1c4148&#45;f31b&#45;4f19&#45;b76e&#45;32af21685e7f&#45;&gt;7b4909f3&#45;1e17&#45;4641&#45;b974&#45;611e06f22cb2 -->
<g id="edge3" class="edge">
<title>0e1c4148&#45;f31b&#45;4f19&#45;b76e&#45;32af21685e7f&#45;&gt;7b4909f3&#45;1e17&#45;4641&#45;b974&#45;611e06f22cb2</title>
<path fill="none" stroke="black" stroke-dasharray="5,2" d="M435,-72.72C435,-64.27 435,-54.89 435,-46.36"/>
<polygon fill="black" stroke="black" points="438.5,-46.15 435,-36.15 431.5,-46.15 438.5,-46.15"/>
</g>
<!-- 96b745e6&#45;3229&#45;46e4&#45;ab98&#45;688c67fb7729 -->
<g id="node6" class="node">
<title>96b745e6&#45;3229&#45;46e4&#45;ab98&#45;688c67fb7729</title>
<ellipse fill="white" stroke="black" cx="1056" cy="-99.87" rx="107.46" ry="26.74"/>
<text text-anchor="middle" x="1056" y="-103.67" font-family="Helvetica,sans-Serif" font-size="14.00">▶ Modify</text>
<text text-anchor="middle" x="1056" y="-88.67" font-family="Helvetica,sans-Serif" font-size="14.00">arpg_mechanics.py</text>
</g>
<!-- 432cecc9&#45;9001&#45;45eb&#45;a424&#45;0874ba5f5642&#45;&gt;96b745e6&#45;3229&#45;46e4&#45;ab98&#45;688c67fb7729 -->
<g id="edge6" class="edge">
<title>432cecc9&#45;9001&#45;45eb&#45;a424&#45;0874ba5f5642&#45;&gt;96b745e6&#45;3229&#45;46e4&#45;ab98&#45;688c67fb7729</title>
<path fill="none" stroke="black" d="M855.84,-99.87C883.35,-99.87 910.85,-99.87 938.36,-99.87"/>
<polygon fill="black" stroke="black" points="938.49,-103.37 948.49,-99.87 938.49,-96.37 938.49,-103.37"/>
</g>
<!-- 685fe93b&#45;c675&#45;4907&#45;9896&#45;b0e85a15f547 -->
<g id="node9" class="node">
<title>685fe93b&#45;c675&#45;4907&#45;9896&#45;b0e85a15f547</title>
<polygon fill="yellow" stroke="black" points="922.5,-36 579.5,-36 579.5,0 922.5,0 922.5,-36"/>
<text text-anchor="middle" x="751" y="-14.3" font-family="Helvetica,sans-Serif" font-size="14.00">⋯ Run GitHub Actions for `target&#45;projectile.py`</text>
</g>
<!-- 432cecc9&#45;9001&#45;45eb&#45;a424&#45;0874ba5f5642&#45;&gt;685fe93b&#45;c675&#45;4907&#45;9896&#45;b0e85a15f547 -->
<g id="edge5" class="edge">
<title>432cecc9&#45;9001&#45;45eb&#45;a424&#45;0874ba5f5642&#45;&gt;685fe93b&#45;c675&#45;4907&#45;9896&#45;b0e85a15f547</title>
<path fill="none" stroke="black" stroke-dasharray="5,2" d="M751,-72.72C751,-64.27 751,-54.89 751,-46.36"/>
<polygon fill="black" stroke="black" points="754.5,-46.15 751,-36.15 747.5,-46.15 754.5,-46.15"/>
</g>
<!-- 96b745e6&#45;3229&#45;46e4&#45;ab98&#45;688c67fb7729&#45;&gt;end -->
<g id="edge9" class="edge">
<title>96b745e6&#45;3229&#45;46e4&#45;ab98&#45;688c67fb7729&#45;&gt;end</title>
<path fill="none" stroke="black" d="M1163.75,-99.87C1182.82,-99.87 1199.89,-99.87 1210.33,-99.87"/>
<polygon fill="black" stroke="black" points="1210.33,-103.37 1220.33,-99.87 1210.33,-96.37 1210.33,-103.37"/>
<text text-anchor="middle" x="1191.99" y="-106.67" font-family="Helvetica,sans-Serif" font-size="14.00">Finish</text>
</g>
<!-- 3c5a3a10&#45;81c6&#45;49d4&#45;9b12&#45;49cef394a0e0 -->
<g id="node10" class="node">
<title>3c5a3a10&#45;81c6&#45;49d4&#45;9b12&#45;49cef394a0e0</title>
<polygon fill="white" stroke="black" points="1283.5,-36 940.5,-36 940.5,0 1283.5,0 1283.5,-36"/>
<text text-anchor="middle" x="1112" y="-14.3" font-family="Helvetica,sans-Serif" font-size="14.00">▶ Run GitHub Actions for `arpg_mechanics.py`</text>
</g>
<!-- 96b745e6&#45;3229&#45;46e4&#45;ab98&#45;688c67fb7729&#45;&gt;3c5a3a10&#45;81c6&#45;49d4&#45;9b12&#45;49cef394a0e0 -->
<g id="edge7" class="edge">
<title>96b745e6&#45;3229&#45;46e4&#45;ab98&#45;688c67fb7729&#45;&gt;3c5a3a10&#45;81c6&#45;49d4&#45;9b12&#45;49cef394a0e0</title>
<path fill="none" stroke="black" stroke-dasharray="5,2" d="M1074.03,-73.16C1080.42,-64.04 1087.62,-53.77 1094.01,-44.65"/>
<polygon fill="black" stroke="black" points="1096.97,-46.53 1099.84,-36.34 1091.24,-42.52 1096.97,-46.53"/>
</g>
</g>
</svg>
