<?xml version="1.0" encoding="UTF-8" standalone="no"?>
<!DOCTYPE svg PUBLIC "-//W3C//DTD SVG 1.1//EN"
 "http://www.w3.org/Graphics/SVG/1.1/DTD/svg11.dtd">
<!-- Generated by graphviz version 2.43.0 (0)
 -->
<!-- Title: %3 Pages: 1 -->
<svg width="989pt" height="238pt"
 viewBox="0.00 0.00 989.00 237.74" xmlns="http://www.w3.org/2000/svg" xmlns:xlink="http://www.w3.org/1999/xlink">
<g id="graph0" class="graph" transform="scale(1 1) rotate(0) translate(36 201.74)">
<title>%3</title>
<polygon fill="dimgray" stroke="transparent" points="-36,36 -36,-201.74 953,-201.74 953,36 -36,36"/>
<text text-anchor="middle" x="458.5" y="-150.54" font-family="Helvetica,sans-Serif" font-size="14.00">Sweep&#39;s Plan &amp; Progress</text>
<!-- start -->
<g id="node1" class="node">
<title>start</title>
</g>
<!-- 9ccad21b&#45;9d1a&#45;44bd&#45;96ae&#45;8acf35191203 -->
<g id="node3" class="node">
<title>9ccad21b&#45;9d1a&#45;44bd&#45;96ae&#45;8acf35191203</title>
<ellipse fill="#0ee832" stroke="black" cx="206.5" cy="-99.87" rx="55.31" ry="26.74"/>
<text text-anchor="middle" x="206.5" y="-103.67" font-family="Helvetica,sans-Serif" font-size="14.00">✓ Create</text>
<text text-anchor="middle" x="206.5" y="-88.67" font-family="Helvetica,sans-Serif" font-size="14.00">battle.py</text>
</g>
<!-- start&#45;&gt;9ccad21b&#45;9d1a&#45;44bd&#45;96ae&#45;8acf35191203 -->
<g id="edge6" class="edge">
<title>start&#45;&gt;9ccad21b&#45;9d1a&#45;44bd&#45;96ae&#45;8acf35191203</title>
<path fill="none" stroke="black" d="M100.18,-99.87C103.79,-99.87 121.21,-99.87 140.94,-99.87"/>
<polygon fill="black" stroke="black" points="141.09,-103.37 151.09,-99.87 141.09,-96.37 141.09,-103.37"/>
<text text-anchor="middle" x="125.67" y="-106.67" font-family="Helvetica,sans-Serif" font-size="14.00">Start</text>
</g>
<!-- end -->
<g id="node2" class="node">
<title>end</title>
</g>
<!-- e2c7b537&#45;96a6&#45;440d&#45;8c6c&#45;6ecd0565cdee -->
<g id="node4" class="node">
<title>e2c7b537&#45;96a6&#45;440d&#45;8c6c&#45;6ecd0565cdee</title>
<ellipse fill="#ee0000" stroke="black" cx="424.5" cy="-99.87" rx="55.72" ry="26.74"/>
<text text-anchor="middle" x="424.5" y="-103.67" font-family="Helvetica,sans-Serif" font-size="14.00">✗ Modify</text>
<text text-anchor="middle" x="424.5" y="-88.67" font-family="Helvetica,sans-Serif" font-size="14.00">battle.py</text>
</g>
<!-- 9ccad21b&#45;9d1a&#45;44bd&#45;96ae&#45;8acf35191203&#45;&gt;e2c7b537&#45;96a6&#45;440d&#45;8c6c&#45;6ecd0565cdee -->
<g id="edge2" class="edge">
<title>9ccad21b&#45;9d1a&#45;44bd&#45;96ae&#45;8acf35191203&#45;&gt;e2c7b537&#45;96a6&#45;440d&#45;8c6c&#45;6ecd0565cdee</title>
<path fill="none" stroke="black" d="M261.85,-99.87C294.1,-99.87 326.34,-99.87 358.58,-99.87"/>
<polygon fill="black" stroke="black" points="358.59,-103.37 368.59,-99.87 358.59,-96.37 358.59,-103.37"/>
</g>
<!-- 8b36d9d5&#45;9017&#45;43de&#45;9e31&#45;513a48e21c97 -->
<g id="node6" class="node">
<title>8b36d9d5&#45;9017&#45;43de&#45;9e31&#45;513a48e21c97</title>
<polygon fill="#0ee832" stroke="black" points="271,-36 0,-36 0,0 271,0 271,-36"/>
<text text-anchor="middle" x="135.5" y="-14.3" font-family="Helvetica,sans-Serif" font-size="14.00">✓ Run GitHub Actions for `battle.py`</text>
</g>
<!-- 9ccad21b&#45;9d1a&#45;44bd&#45;96ae&#45;8acf35191203&#45;&gt;8b36d9d5&#45;9017&#45;43de&#45;9e31&#45;513a48e21c97 -->
<g id="edge1" class="edge">
<title>9ccad21b&#45;9d1a&#45;44bd&#45;96ae&#45;8acf35191203&#45;&gt;8b36d9d5&#45;9017&#45;43de&#45;9e31&#45;513a48e21c97</title>
<path fill="none" stroke="black" stroke-dasharray="5,2" d="M185.2,-74.91C176.43,-65.04 166.28,-53.63 157.45,-43.69"/>
<polygon fill="black" stroke="black" points="159.96,-41.25 150.7,-36.1 154.73,-45.9 159.96,-41.25"/>
</g>
<!-- 3e70b261&#45;6cb5&#45;4d4c&#45;a435&#45;297bec6c09e2 -->
<g id="node5" class="node">
<title>3e70b261&#45;6cb5&#45;4d4c&#45;a435&#45;297bec6c09e2</title>
<ellipse fill="white" stroke="black" cx="684.5" cy="-99.87" rx="104.8" ry="26.74"/>
<text text-anchor="middle" x="684.5" y="-103.67" font-family="Helvetica,sans-Serif" font-size="14.00">▶ Modify</text>
<text text-anchor="middle" x="684.5" y="-88.67" font-family="Helvetica,sans-Serif" font-size="14.00">target&#45;projectile.py</text>
</g>
<!-- e2c7b537&#45;96a6&#45;440d&#45;8c6c&#45;6ecd0565cdee&#45;&gt;3e70b261&#45;6cb5&#45;4d4c&#45;a435&#45;297bec6c09e2 -->
<g id="edge4" class="edge">
<title>e2c7b537&#45;96a6&#45;440d&#45;8c6c&#45;6ecd0565cdee&#45;&gt;3e70b261&#45;6cb5&#45;4d4c&#45;a435&#45;297bec6c09e2</title>
<path fill="none" stroke="black" d="M480.61,-99.87C510.31,-99.87 540,-99.87 569.7,-99.87"/>
<polygon fill="black" stroke="black" points="569.77,-103.37 579.77,-99.87 569.77,-96.37 569.77,-103.37"/>
</g>
<!-- f3b88d98&#45;76c5&#45;44ad&#45;bd7a&#45;792700515a63 -->
<g id="node7" class="node">
<title>f3b88d98&#45;76c5&#45;44ad&#45;bd7a&#45;792700515a63</title>
<polygon fill="#ee0000" stroke="black" points="560,-36 289,-36 289,0 560,0 560,-36"/>
<text text-anchor="middle" x="424.5" y="-14.3" font-family="Helvetica,sans-Serif" font-size="14.00">✗ Run GitHub Actions for `battle.py`</text>
</g>
<!-- e2c7b537&#45;96a6&#45;440d&#45;8c6c&#45;6ecd0565cdee&#45;&gt;f3b88d98&#45;76c5&#45;44ad&#45;bd7a&#45;792700515a63 -->
<g id="edge3" class="edge">
<title>e2c7b537&#45;96a6&#45;440d&#45;8c6c&#45;6ecd0565cdee&#45;&gt;f3b88d98&#45;76c5&#45;44ad&#45;bd7a&#45;792700515a63</title>
<path fill="none" stroke="black" stroke-dasharray="5,2" d="M424.5,-72.72C424.5,-64.27 424.5,-54.89 424.5,-46.36"/>
<polygon fill="black" stroke="black" points="428,-46.15 424.5,-36.15 421,-46.15 428,-46.15"/>
</g>
<!-- 3e70b261&#45;6cb5&#45;4d4c&#45;a435&#45;297bec6c09e2&#45;&gt;end -->
<g id="edge7" class="edge">
<title>3e70b261&#45;6cb5&#45;4d4c&#45;a435&#45;297bec6c09e2&#45;&gt;end</title>
<path fill="none" stroke="black" d="M789.57,-99.87C808.78,-99.87 826.07,-99.87 836.66,-99.87"/>
<polygon fill="black" stroke="black" points="836.82,-103.37 846.82,-99.87 836.82,-96.37 836.82,-103.37"/>
<text text-anchor="middle" x="818.08" y="-106.67" font-family="Helvetica,sans-Serif" font-size="14.00">Finish</text>
</g>
<!-- e7d68637&#45;b66b&#45;44bb&#45;bd31&#45;25f2d07a84f9 -->
<g id="node8" class="node">
<title>e7d68637&#45;b66b&#45;44bb&#45;bd31&#45;25f2d07a84f9</title>
<polygon fill="white" stroke="black" points="917,-36 578,-36 578,0 917,0 917,-36"/>
<text text-anchor="middle" x="747.5" y="-14.3" font-family="Helvetica,sans-Serif" font-size="14.00">▶ Run GitHub Actions for `target&#45;projectile.py`</text>
</g>
<!-- 3e70b261&#45;6cb5&#45;4d4c&#45;a435&#45;297bec6c09e2&#45;&gt;e7d68637&#45;b66b&#45;44bb&#45;bd31&#45;25f2d07a84f9 -->
<g id="edge5" class="edge">
<title>3e70b261&#45;6cb5&#45;4d4c&#45;a435&#45;297bec6c09e2&#45;&gt;e7d68637&#45;b66b&#45;44bb&#45;bd31&#45;25f2d07a84f9</title>
<path fill="none" stroke="black" stroke-dasharray="5,2" d="M704.78,-73.16C712.05,-63.94 720.24,-53.56 727.49,-44.37"/>
<polygon fill="black" stroke="black" points="730.38,-46.36 733.83,-36.34 724.88,-42.02 730.38,-46.36"/>
</g>
</g>
</svg>
