<?xml version="1.0" encoding="UTF-8" standalone="no"?>
<!DOCTYPE svg PUBLIC "-//W3C//DTD SVG 1.1//EN"
 "http://www.w3.org/Graphics/SVG/1.1/DTD/svg11.dtd">
<!-- Generated by graphviz version 2.43.0 (0)
 -->
<!-- Title: %3 Pages: 1 -->
<svg width="985pt" height="238pt"
 viewBox="0.00 0.00 985.00 237.74" xmlns="http://www.w3.org/2000/svg" xmlns:xlink="http://www.w3.org/1999/xlink">
<g id="graph0" class="graph" transform="scale(1 1) rotate(0) translate(36 201.74)">
<title>%3</title>
<polygon fill="dimgray" stroke="transparent" points="-36,36 -36,-201.74 949,-201.74 949,36 -36,36"/>
<text text-anchor="middle" x="456.5" y="-150.54" font-family="Helvetica,sans-Serif" font-size="14.00">Sweep&#39;s Plan &amp; Progress</text>
<!-- start -->
<g id="node1" class="node">
<title>start</title>
</g>
<!-- 9ccad21b&#45;9d1a&#45;44bd&#45;96ae&#45;8acf35191203 -->
<g id="node3" class="node">
<title>9ccad21b&#45;9d1a&#45;44bd&#45;96ae&#45;8acf35191203</title>
<ellipse fill="yellow" stroke="black" cx="204.5" cy="-99.87" rx="56.64" ry="26.74"/>
<text text-anchor="middle" x="204.5" y="-103.67" font-family="Helvetica,sans-Serif" font-size="14.00">⋯ Create</text>
<text text-anchor="middle" x="204.5" y="-88.67" font-family="Helvetica,sans-Serif" font-size="14.00">battle.py</text>
</g>
<!-- start&#45;&gt;9ccad21b&#45;9d1a&#45;44bd&#45;96ae&#45;8acf35191203 -->
<g id="edge6" class="edge">
<title>start&#45;&gt;9ccad21b&#45;9d1a&#45;44bd&#45;96ae&#45;8acf35191203</title>
<path fill="none" stroke="black" d="M96.2,-99.87C99.87,-99.87 117.63,-99.87 137.74,-99.87"/>
<polygon fill="black" stroke="black" points="137.75,-103.37 147.75,-99.87 137.75,-96.37 137.75,-103.37"/>
<text text-anchor="middle" x="121.97" y="-106.67" font-family="Helvetica,sans-Serif" font-size="14.00">Start</text>
</g>
<!-- end -->
<g id="node2" class="node">
<title>end</title>
</g>
<!-- e2c7b537&#45;96a6&#45;440d&#45;8c6c&#45;6ecd0565cdee -->
<g id="node4" class="node">
<title>e2c7b537&#45;96a6&#45;440d&#45;8c6c&#45;6ecd0565cdee</title>
<ellipse fill="white" stroke="black" cx="421.5" cy="-99.87" rx="55.31" ry="26.74"/>
<text text-anchor="middle" x="421.5" y="-103.67" font-family="Helvetica,sans-Serif" font-size="14.00">▶ Modify</text>
<text text-anchor="middle" x="421.5" y="-88.67" font-family="Helvetica,sans-Serif" font-size="14.00">battle.py</text>
</g>
<!-- 9ccad21b&#45;9d1a&#45;44bd&#45;96ae&#45;8acf35191203&#45;&gt;e2c7b537&#45;96a6&#45;440d&#45;8c6c&#45;6ecd0565cdee -->
<g id="edge2" class="edge">
<title>9ccad21b&#45;9d1a&#45;44bd&#45;96ae&#45;8acf35191203&#45;&gt;e2c7b537&#45;96a6&#45;440d&#45;8c6c&#45;6ecd0565cdee</title>
<path fill="none" stroke="black" d="M261.29,-99.87C292.82,-99.87 324.35,-99.87 355.88,-99.87"/>
<polygon fill="black" stroke="black" points="356.12,-103.37 366.12,-99.87 356.12,-96.37 356.12,-103.37"/>
</g>
<!-- 8b36d9d5&#45;9017&#45;43de&#45;9e31&#45;513a48e21c97 -->
<g id="node6" class="node">
<title>8b36d9d5&#45;9017&#45;43de&#45;9e31&#45;513a48e21c97</title>
<polygon fill="white" stroke="black" points="269,-36 0,-36 0,0 269,0 269,-36"/>
<text text-anchor="middle" x="134.5" y="-14.3" font-family="Helvetica,sans-Serif" font-size="14.00">▶ Run GitHub Actions for `battle.py`</text>
</g>
<!-- 9ccad21b&#45;9d1a&#45;44bd&#45;96ae&#45;8acf35191203&#45;&gt;8b36d9d5&#45;9017&#45;43de&#45;9e31&#45;513a48e21c97 -->
<g id="edge1" class="edge">
<title>9ccad21b&#45;9d1a&#45;44bd&#45;96ae&#45;8acf35191203&#45;&gt;8b36d9d5&#45;9017&#45;43de&#45;9e31&#45;513a48e21c97</title>
<path fill="none" stroke="black" stroke-dasharray="5,2" d="M183.5,-74.91C174.85,-65.04 164.85,-53.63 156.14,-43.69"/>
<polygon fill="black" stroke="black" points="158.71,-41.31 149.48,-36.1 153.44,-45.92 158.71,-41.31"/>
</g>
<!-- 3e70b261&#45;6cb5&#45;4d4c&#45;a435&#45;297bec6c09e2 -->
<g id="node5" class="node">
<title>3e70b261&#45;6cb5&#45;4d4c&#45;a435&#45;297bec6c09e2</title>
<ellipse fill="white" stroke="black" cx="680.5" cy="-99.87" rx="104.8" ry="26.74"/>
<text text-anchor="middle" x="680.5" y="-103.67" font-family="Helvetica,sans-Serif" font-size="14.00">▶ Modify</text>
<text text-anchor="middle" x="680.5" y="-88.67" font-family="Helvetica,sans-Serif" font-size="14.00">target&#45;projectile.py</text>
</g>
<!-- e2c7b537&#45;96a6&#45;440d&#45;8c6c&#45;6ecd0565cdee&#45;&gt;3e70b261&#45;6cb5&#45;4d4c&#45;a435&#45;297bec6c09e2 -->
<g id="edge4" class="edge">
<title>e2c7b537&#45;96a6&#45;440d&#45;8c6c&#45;6ecd0565cdee&#45;&gt;3e70b261&#45;6cb5&#45;4d4c&#45;a435&#45;297bec6c09e2</title>
<path fill="none" stroke="black" d="M476.89,-99.87C506.43,-99.87 535.96,-99.87 565.5,-99.87"/>
<polygon fill="black" stroke="black" points="565.51,-103.37 575.51,-99.87 565.51,-96.37 565.51,-103.37"/>
</g>
<!-- f3b88d98&#45;76c5&#45;44ad&#45;bd7a&#45;792700515a63 -->
<g id="node7" class="node">
<title>f3b88d98&#45;76c5&#45;44ad&#45;bd7a&#45;792700515a63</title>
<polygon fill="white" stroke="black" points="556,-36 287,-36 287,0 556,0 556,-36"/>
<text text-anchor="middle" x="421.5" y="-14.3" font-family="Helvetica,sans-Serif" font-size="14.00">▶ Run GitHub Actions for `battle.py`</text>
</g>
<!-- e2c7b537&#45;96a6&#45;440d&#45;8c6c&#45;6ecd0565cdee&#45;&gt;f3b88d98&#45;76c5&#45;44ad&#45;bd7a&#45;792700515a63 -->
<g id="edge3" class="edge">
<title>e2c7b537&#45;96a6&#45;440d&#45;8c6c&#45;6ecd0565cdee&#45;&gt;f3b88d98&#45;76c5&#45;44ad&#45;bd7a&#45;792700515a63</title>
<path fill="none" stroke="black" stroke-dasharray="5,2" d="M421.5,-72.72C421.5,-64.27 421.5,-54.89 421.5,-46.36"/>
<polygon fill="black" stroke="black" points="425,-46.15 421.5,-36.15 418,-46.15 425,-46.15"/>
</g>
<!-- 3e70b261&#45;6cb5&#45;4d4c&#45;a435&#45;297bec6c09e2&#45;&gt;end -->
<g id="edge7" class="edge">
<title>3e70b261&#45;6cb5&#45;4d4c&#45;a435&#45;297bec6c09e2&#45;&gt;end</title>
<path fill="none" stroke="black" d="M785.57,-99.87C804.78,-99.87 822.07,-99.87 832.66,-99.87"/>
<polygon fill="black" stroke="black" points="832.82,-103.37 842.82,-99.87 832.82,-96.37 832.82,-103.37"/>
<text text-anchor="middle" x="814.08" y="-106.67" font-family="Helvetica,sans-Serif" font-size="14.00">Finish</text>
</g>
<!-- e7d68637&#45;b66b&#45;44bb&#45;bd31&#45;25f2d07a84f9 -->
<g id="node8" class="node">
<title>e7d68637&#45;b66b&#45;44bb&#45;bd31&#45;25f2d07a84f9</title>
<polygon fill="white" stroke="black" points="913,-36 574,-36 574,0 913,0 913,-36"/>
<text text-anchor="middle" x="743.5" y="-14.3" font-family="Helvetica,sans-Serif" font-size="14.00">▶ Run GitHub Actions for `target&#45;projectile.py`</text>
</g>
<!-- 3e70b261&#45;6cb5&#45;4d4c&#45;a435&#45;297bec6c09e2&#45;&gt;e7d68637&#45;b66b&#45;44bb&#45;bd31&#45;25f2d07a84f9 -->
<g id="edge5" class="edge">
<title>3e70b261&#45;6cb5&#45;4d4c&#45;a435&#45;297bec6c09e2&#45;&gt;e7d68637&#45;b66b&#45;44bb&#45;bd31&#45;25f2d07a84f9</title>
<path fill="none" stroke="black" stroke-dasharray="5,2" d="M700.78,-73.16C708.05,-63.94 716.24,-53.56 723.49,-44.37"/>
<polygon fill="black" stroke="black" points="726.38,-46.36 729.83,-36.34 720.88,-42.02 726.38,-46.36"/>
</g>
</g>
</svg>
