<?xml version="1.0" encoding="UTF-8" standalone="no"?>
<!DOCTYPE svg PUBLIC "-//W3C//DTD SVG 1.1//EN"
 "http://www.w3.org/Graphics/SVG/1.1/DTD/svg11.dtd">
<!-- Generated by graphviz version 2.43.0 (0)
 -->
<!-- Title: %3 Pages: 1 -->
<svg width="768pt" height="238pt"
 viewBox="0.00 0.00 768.00 237.74" xmlns="http://www.w3.org/2000/svg" xmlns:xlink="http://www.w3.org/1999/xlink">
<g id="graph0" class="graph" transform="scale(1 1) rotate(0) translate(36 201.74)">
<title>%3</title>
<polygon fill="dimgray" stroke="transparent" points="-36,36 -36,-201.74 732,-201.74 732,36 -36,36"/>
<text text-anchor="middle" x="348" y="-150.54" font-family="Helvetica,sans-Serif" font-size="14.00">Sweep&#39;s Plan &amp; Progress</text>
<!-- start -->
<g id="node1" class="node">
<title>start</title>
</g>
<!-- a2356cbb&#45;8825&#45;41bd&#45;90b6&#45;0f421cd5218e -->
<g id="node3" class="node">
<title>a2356cbb&#45;8825&#45;41bd&#45;90b6&#45;0f421cd5218e</title>
<ellipse fill="yellow" stroke="black" cx="223.5" cy="-99.87" rx="101.23" ry="26.74"/>
<text text-anchor="middle" x="223.5" y="-103.67" font-family="Helvetica,sans-Serif" font-size="14.00">⋯ Create</text>
<text text-anchor="middle" x="223.5" y="-88.67" font-family="Helvetica,sans-Serif" font-size="14.00">battle_scenario.py</text>
</g>
<!-- start&#45;&gt;a2356cbb&#45;8825&#45;41bd&#45;90b6&#45;0f421cd5218e -->
<g id="edge4" class="edge">
<title>start&#45;&gt;a2356cbb&#45;8825&#45;41bd&#45;90b6&#45;0f421cd5218e</title>
<path fill="none" stroke="black" d="M71.18,-99.87C74.66,-99.87 91.09,-99.87 111.96,-99.87"/>
<polygon fill="black" stroke="black" points="112.17,-103.37 122.17,-99.87 112.17,-96.37 112.17,-103.37"/>
<text text-anchor="middle" x="96.69" y="-106.67" font-family="Helvetica,sans-Serif" font-size="14.00">Start</text>
</g>
<!-- end -->
<g id="node2" class="node">
<title>end</title>
</g>
<!-- d9f078b1&#45;1b10&#45;446b&#45;868e&#45;472f4b94e543 -->
<g id="node4" class="node">
<title>d9f078b1&#45;1b10&#45;446b&#45;868e&#45;472f4b94e543</title>
<ellipse fill="white" stroke="black" cx="496.5" cy="-99.87" rx="107.46" ry="26.74"/>
<text text-anchor="middle" x="496.5" y="-103.67" font-family="Helvetica,sans-Serif" font-size="14.00">▶ Modify</text>
<text text-anchor="middle" x="496.5" y="-88.67" font-family="Helvetica,sans-Serif" font-size="14.00">arpg_mechanics.py</text>
</g>
<!-- a2356cbb&#45;8825&#45;41bd&#45;90b6&#45;0f421cd5218e&#45;&gt;d9f078b1&#45;1b10&#45;446b&#45;868e&#45;472f4b94e543 -->
<g id="edge2" class="edge">
<title>a2356cbb&#45;8825&#45;41bd&#45;90b6&#45;0f421cd5218e&#45;&gt;d9f078b1&#45;1b10&#45;446b&#45;868e&#45;472f4b94e543</title>
<path fill="none" stroke="black" d="M324.81,-99.87C342.82,-99.87 360.84,-99.87 378.85,-99.87"/>
<polygon fill="black" stroke="black" points="378.86,-103.37 388.86,-99.87 378.86,-96.37 378.86,-103.37"/>
</g>
<!-- c60b75ca&#45;ca0a&#45;414b&#45;8ff4&#45;023c1ba1f17b -->
<g id="node5" class="node">
<title>c60b75ca&#45;ca0a&#45;414b&#45;8ff4&#45;023c1ba1f17b</title>
<polygon fill="white" stroke="black" points="335,-36 0,-36 0,0 335,0 335,-36"/>
<text text-anchor="middle" x="167.5" y="-14.3" font-family="Helvetica,sans-Serif" font-size="14.00">▶ Run GitHub Actions for `battle_scenario.py`</text>
</g>
<!-- a2356cbb&#45;8825&#45;41bd&#45;90b6&#45;0f421cd5218e&#45;&gt;c60b75ca&#45;ca0a&#45;414b&#45;8ff4&#45;023c1ba1f17b -->
<g id="edge1" class="edge">
<title>a2356cbb&#45;8825&#45;41bd&#45;90b6&#45;0f421cd5218e&#45;&gt;c60b75ca&#45;ca0a&#45;414b&#45;8ff4&#45;023c1ba1f17b</title>
<path fill="none" stroke="black" stroke-dasharray="5,2" d="M205.47,-73.16C199.08,-64.04 191.88,-53.77 185.49,-44.65"/>
<polygon fill="black" stroke="black" points="188.26,-42.52 179.66,-36.34 182.53,-46.53 188.26,-42.52"/>
</g>
<!-- d9f078b1&#45;1b10&#45;446b&#45;868e&#45;472f4b94e543&#45;&gt;end -->
<g id="edge5" class="edge">
<title>d9f078b1&#45;1b10&#45;446b&#45;868e&#45;472f4b94e543&#45;&gt;end</title>
<path fill="none" stroke="black" d="M604.25,-99.87C623.32,-99.87 640.39,-99.87 650.83,-99.87"/>
<polygon fill="black" stroke="black" points="650.83,-103.37 660.83,-99.87 650.83,-96.37 650.83,-103.37"/>
<text text-anchor="middle" x="632.49" y="-106.67" font-family="Helvetica,sans-Serif" font-size="14.00">Finish</text>
</g>
<!-- 0c5586cc&#45;7537&#45;4b87&#45;abcb&#45;34fd3a813c86 -->
<g id="node6" class="node">
<title>0c5586cc&#45;7537&#45;4b87&#45;abcb&#45;34fd3a813c86</title>
<polygon fill="white" stroke="black" points="696,-36 353,-36 353,0 696,0 696,-36"/>
<text text-anchor="middle" x="524.5" y="-14.3" font-family="Helvetica,sans-Serif" font-size="14.00">▶ Run GitHub Actions for `arpg_mechanics.py`</text>
</g>
<!-- d9f078b1&#45;1b10&#45;446b&#45;868e&#45;472f4b94e543&#45;&gt;0c5586cc&#45;7537&#45;4b87&#45;abcb&#45;34fd3a813c86 -->
<g id="edge3" class="edge">
<title>d9f078b1&#45;1b10&#45;446b&#45;868e&#45;472f4b94e543&#45;&gt;0c5586cc&#45;7537&#45;4b87&#45;abcb&#45;34fd3a813c86</title>
<path fill="none" stroke="black" stroke-dasharray="5,2" d="M505.67,-72.72C508.69,-64.08 512.06,-54.47 515.11,-45.79"/>
<polygon fill="black" stroke="black" points="518.48,-46.74 518.49,-36.15 511.88,-44.43 518.48,-46.74"/>
</g>
</g>
</svg>
