<?xml version="1.0" encoding="UTF-8" standalone="no"?>
<!DOCTYPE svg PUBLIC "-//W3C//DTD SVG 1.1//EN"
 "http://www.w3.org/Graphics/SVG/1.1/DTD/svg11.dtd">
<!-- Generated by graphviz version 2.43.0 (0)
 -->
<!-- Title: %3 Pages: 1 -->
<svg width="1337pt" height="238pt"
 viewBox="0.00 0.00 1337.00 237.74" xmlns="http://www.w3.org/2000/svg" xmlns:xlink="http://www.w3.org/1999/xlink">
<g id="graph0" class="graph" transform="scale(1 1) rotate(0) translate(36 201.74)">
<title>%3</title>
<polygon fill="dimgray" stroke="transparent" points="-36,36 -36,-201.74 1301,-201.74 1301,36 -36,36"/>
<text text-anchor="middle" x="632.5" y="-150.54" font-family="Helvetica,sans-Serif" font-size="14.00">Sweep&#39;s Plan &amp; Progress</text>
<!-- start -->
<g id="node1" class="node">
<title>start</title>
</g>
<!-- 8d345987&#45;c83a&#45;45f5&#45;8f3b&#45;129cc70dc2cc -->
<g id="node3" class="node">
<title>8d345987&#45;c83a&#45;45f5&#45;8f3b&#45;129cc70dc2cc</title>
<ellipse fill="#0ee832" stroke="black" cx="231" cy="-99.87" rx="107.46" ry="26.74"/>
<text text-anchor="middle" x="231" y="-103.67" font-family="Helvetica,sans-Serif" font-size="14.00">✓ Create</text>
<text text-anchor="middle" x="231" y="-88.67" font-family="Helvetica,sans-Serif" font-size="14.00">arpg_mechanics.py</text>
</g>
<!-- start&#45;&gt;8d345987&#45;c83a&#45;45f5&#45;8f3b&#45;129cc70dc2cc -->
<g id="edge8" class="edge">
<title>start&#45;&gt;8d345987&#45;c83a&#45;45f5&#45;8f3b&#45;129cc70dc2cc</title>
<path fill="none" stroke="black" d="M72.71,-99.87C76.21,-99.87 92.32,-99.87 113.01,-99.87"/>
<polygon fill="black" stroke="black" points="113.15,-103.37 123.15,-99.87 113.15,-96.37 113.15,-103.37"/>
<text text-anchor="middle" x="98.01" y="-106.67" font-family="Helvetica,sans-Serif" font-size="14.00">Start</text>
</g>
<!-- end -->
<g id="node2" class="node">
<title>end</title>
</g>
<!-- 5509761a&#45;b53f&#45;4ac5&#45;bd90&#45;d7f712e2c604 -->
<g id="node4" class="node">
<title>5509761a&#45;b53f&#45;4ac5&#45;bd90&#45;d7f712e2c604</title>
<ellipse fill="#0ee832" stroke="black" cx="489" cy="-99.87" rx="55.72" ry="26.74"/>
<text text-anchor="middle" x="489" y="-103.67" font-family="Helvetica,sans-Serif" font-size="14.00">✓ Modify</text>
<text text-anchor="middle" x="489" y="-88.67" font-family="Helvetica,sans-Serif" font-size="14.00">init.py</text>
</g>
<!-- 8d345987&#45;c83a&#45;45f5&#45;8f3b&#45;129cc70dc2cc&#45;&gt;5509761a&#45;b53f&#45;4ac5&#45;bd90&#45;d7f712e2c604 -->
<g id="edge2" class="edge">
<title>8d345987&#45;c83a&#45;45f5&#45;8f3b&#45;129cc70dc2cc&#45;&gt;5509761a&#45;b53f&#45;4ac5&#45;bd90&#45;d7f712e2c604</title>
<path fill="none" stroke="black" d="M338.58,-99.87C366.58,-99.87 394.58,-99.87 422.57,-99.87"/>
<polygon fill="black" stroke="black" points="422.89,-103.37 432.89,-99.87 422.89,-96.37 422.89,-103.37"/>
</g>
<!-- 4467e244&#45;879c&#45;4bca&#45;80cc&#45;77c820e2206a -->
<g id="node7" class="node">
<title>4467e244&#45;879c&#45;4bca&#45;80cc&#45;77c820e2206a</title>
<polygon fill="#0ee832" stroke="black" points="344,-36 0,-36 0,0 344,0 344,-36"/>
<text text-anchor="middle" x="172" y="-14.3" font-family="Helvetica,sans-Serif" font-size="14.00">✓ Run GitHub Actions for `arpg_mechanics.py`</text>
</g>
<!-- 8d345987&#45;c83a&#45;45f5&#45;8f3b&#45;129cc70dc2cc&#45;&gt;4467e244&#45;879c&#45;4bca&#45;80cc&#45;77c820e2206a -->
<g id="edge1" class="edge">
<title>8d345987&#45;c83a&#45;45f5&#45;8f3b&#45;129cc70dc2cc&#45;&gt;4467e244&#45;879c&#45;4bca&#45;80cc&#45;77c820e2206a</title>
<path fill="none" stroke="black" stroke-dasharray="5,2" d="M212.01,-73.16C205.27,-64.04 197.69,-53.77 190.95,-44.65"/>
<polygon fill="black" stroke="black" points="193.56,-42.3 184.81,-36.34 187.93,-46.46 193.56,-42.3"/>
</g>
<!-- 456a041d&#45;2ffb&#45;4246&#45;a0c6&#45;8e36e2d9054d -->
<g id="node5" class="node">
<title>456a041d&#45;2ffb&#45;4246&#45;a0c6&#45;8e36e2d9054d</title>
<ellipse fill="#0ee832" stroke="black" cx="805" cy="-99.87" rx="104.8" ry="26.74"/>
<text text-anchor="middle" x="805" y="-103.67" font-family="Helvetica,sans-Serif" font-size="14.00">✓ Modify</text>
<text text-anchor="middle" x="805" y="-88.67" font-family="Helvetica,sans-Serif" font-size="14.00">target&#45;projectile.py</text>
</g>
<!-- 5509761a&#45;b53f&#45;4ac5&#45;bd90&#45;d7f712e2c604&#45;&gt;456a041d&#45;2ffb&#45;4246&#45;a0c6&#45;8e36e2d9054d -->
<g id="edge4" class="edge">
<title>5509761a&#45;b53f&#45;4ac5&#45;bd90&#45;d7f712e2c604&#45;&gt;456a041d&#45;2ffb&#45;4246&#45;a0c6&#45;8e36e2d9054d</title>
<path fill="none" stroke="black" d="M545.16,-99.87C593.41,-99.87 641.66,-99.87 689.91,-99.87"/>
<polygon fill="black" stroke="black" points="690.2,-103.37 700.2,-99.87 690.2,-96.37 690.2,-103.37"/>
</g>
<!-- dd999c6f&#45;785a&#45;4d41&#45;bfe7&#45;930a87ece16e -->
<g id="node8" class="node">
<title>dd999c6f&#45;785a&#45;4d41&#45;bfe7&#45;930a87ece16e</title>
<polygon fill="#0ee832" stroke="black" points="615.5,-36 362.5,-36 362.5,0 615.5,0 615.5,-36"/>
<text text-anchor="middle" x="489" y="-14.3" font-family="Helvetica,sans-Serif" font-size="14.00">✓ Run GitHub Actions for `init.py`</text>
</g>
<!-- 5509761a&#45;b53f&#45;4ac5&#45;bd90&#45;d7f712e2c604&#45;&gt;dd999c6f&#45;785a&#45;4d41&#45;bfe7&#45;930a87ece16e -->
<g id="edge3" class="edge">
<title>5509761a&#45;b53f&#45;4ac5&#45;bd90&#45;d7f712e2c604&#45;&gt;dd999c6f&#45;785a&#45;4d41&#45;bfe7&#45;930a87ece16e</title>
<path fill="none" stroke="black" stroke-dasharray="5,2" d="M489,-72.72C489,-64.27 489,-54.89 489,-46.36"/>
<polygon fill="black" stroke="black" points="492.5,-46.15 489,-36.15 485.5,-46.15 492.5,-46.15"/>
</g>
<!-- 72fbb9a0&#45;eb1a&#45;4b62&#45;83b5&#45;0423c325b514 -->
<g id="node6" class="node">
<title>72fbb9a0&#45;eb1a&#45;4b62&#45;83b5&#45;0423c325b514</title>
<ellipse fill="white" stroke="black" cx="1066" cy="-99.87" rx="55.72" ry="26.74"/>
<text text-anchor="middle" x="1066" y="-103.67" font-family="Helvetica,sans-Serif" font-size="14.00">▶ Modify</text>
<text text-anchor="middle" x="1066" y="-88.67" font-family="Helvetica,sans-Serif" font-size="14.00">script.txt</text>
</g>
<!-- 456a041d&#45;2ffb&#45;4246&#45;a0c6&#45;8e36e2d9054d&#45;&gt;72fbb9a0&#45;eb1a&#45;4b62&#45;83b5&#45;0423c325b514 -->
<g id="edge6" class="edge">
<title>456a041d&#45;2ffb&#45;4246&#45;a0c6&#45;8e36e2d9054d&#45;&gt;72fbb9a0&#45;eb1a&#45;4b62&#45;83b5&#45;0423c325b514</title>
<path fill="none" stroke="black" d="M909.76,-99.87C939.73,-99.87 969.71,-99.87 999.68,-99.87"/>
<polygon fill="black" stroke="black" points="999.85,-103.37 1009.85,-99.87 999.85,-96.37 999.85,-103.37"/>
</g>
<!-- 84638b25&#45;eb21&#45;4321&#45;a069&#45;3ba25fbf7a06 -->
<g id="node9" class="node">
<title>84638b25&#45;eb21&#45;4321&#45;a069&#45;3ba25fbf7a06</title>
<polygon fill="yellow" stroke="black" points="976.5,-36 633.5,-36 633.5,0 976.5,0 976.5,-36"/>
<text text-anchor="middle" x="805" y="-14.3" font-family="Helvetica,sans-Serif" font-size="14.00">⋯ Run GitHub Actions for `target&#45;projectile.py`</text>
</g>
<!-- 456a041d&#45;2ffb&#45;4246&#45;a0c6&#45;8e36e2d9054d&#45;&gt;84638b25&#45;eb21&#45;4321&#45;a069&#45;3ba25fbf7a06 -->
<g id="edge5" class="edge">
<title>456a041d&#45;2ffb&#45;4246&#45;a0c6&#45;8e36e2d9054d&#45;&gt;84638b25&#45;eb21&#45;4321&#45;a069&#45;3ba25fbf7a06</title>
<path fill="none" stroke="black" stroke-dasharray="5,2" d="M805,-72.72C805,-64.27 805,-54.89 805,-46.36"/>
<polygon fill="black" stroke="black" points="808.5,-46.15 805,-36.15 801.5,-46.15 808.5,-46.15"/>
</g>
<!-- 72fbb9a0&#45;eb1a&#45;4b62&#45;83b5&#45;0423c325b514&#45;&gt;end -->
<g id="edge9" class="edge">
<title>72fbb9a0&#45;eb1a&#45;4b62&#45;83b5&#45;0423c325b514&#45;&gt;end</title>
<path fill="none" stroke="black" d="M1122,-99.87C1139.96,-99.87 1158.06,-99.87 1169.15,-99.87"/>
<polygon fill="black" stroke="black" points="1169.26,-103.37 1179.26,-99.87 1169.26,-96.37 1169.26,-103.37"/>
<text text-anchor="middle" x="1150.68" y="-106.67" font-family="Helvetica,sans-Serif" font-size="14.00">Finish</text>
</g>
<!-- 97551997&#45;1d20&#45;49a5&#45;a06e&#45;f4e745f7bf5f -->
<g id="node10" class="node">
<title>97551997&#45;1d20&#45;49a5&#45;a06e&#45;f4e745f7bf5f</title>
<polygon fill="white" stroke="black" points="1265,-36 995,-36 995,0 1265,0 1265,-36"/>
<text text-anchor="middle" x="1130" y="-14.3" font-family="Helvetica,sans-Serif" font-size="14.00">▶ Run GitHub Actions for `script.txt`</text>
</g>
<!-- 72fbb9a0&#45;eb1a&#45;4b62&#45;83b5&#45;0423c325b514&#45;&gt;97551997&#45;1d20&#45;49a5&#45;a06e&#45;f4e745f7bf5f -->
<g id="edge7" class="edge">
<title>72fbb9a0&#45;eb1a&#45;4b62&#45;83b5&#45;0423c325b514&#45;&gt;97551997&#45;1d20&#45;49a5&#45;a06e&#45;f4e745f7bf5f</title>
<path fill="none" stroke="black" stroke-dasharray="5,2" d="M1085.55,-74.47C1093.23,-64.89 1102.04,-53.9 1109.78,-44.24"/>
<polygon fill="black" stroke="black" points="1112.73,-46.15 1116.25,-36.16 1107.26,-41.78 1112.73,-46.15"/>
</g>
</g>
</svg>
