<?xml version="1.0" encoding="UTF-8" standalone="no"?>
<!DOCTYPE svg PUBLIC "-//W3C//DTD SVG 1.1//EN"
 "http://www.w3.org/Graphics/SVG/1.1/DTD/svg11.dtd">
<!-- Generated by graphviz version 2.43.0 (0)
 -->
<!-- Title: %3 Pages: 1 -->
<svg width="649pt" height="165pt"
 viewBox="0.00 0.00 649.00 164.74" xmlns="http://www.w3.org/2000/svg" xmlns:xlink="http://www.w3.org/1999/xlink">
<g id="graph0" class="graph" transform="scale(1 1) rotate(0) translate(36 128.74)">
<title>%3</title>
<polygon fill="dimgray" stroke="transparent" points="-36,36 -36,-128.74 613,-128.74 613,36 -36,36"/>
<text text-anchor="middle" x="288.5" y="-77.54" font-family="Helvetica,sans-Serif" font-size="14.00">Sweep&#39;s Plan &amp; Progress</text>
<!-- start -->
<g id="node1" class="node">
<title>start</title>
</g>
<!-- 5b3da1b8&#45;92d2&#45;4362&#45;b896&#45;14fcc72e8a5c -->
<g id="node3" class="node">
<title>5b3da1b8&#45;92d2&#45;4362&#45;b896&#45;14fcc72e8a5c</title>
<ellipse fill="#0ee832" stroke="black" cx="160.5" cy="-26.87" rx="108.38" ry="26.74"/>
<text text-anchor="middle" x="160.5" y="-30.67" font-family="Helvetica,sans-Serif" font-size="14.00">✓ Create</text>
<text text-anchor="middle" x="160.5" y="-15.67" font-family="Helvetica,sans-Serif" font-size="14.00">graph_generator.py</text>
</g>
<!-- start&#45;&gt;5b3da1b8&#45;92d2&#45;4362&#45;b896&#45;14fcc72e8a5c -->
<g id="edge2" class="edge">
<title>start&#45;&gt;5b3da1b8&#45;92d2&#45;4362&#45;b896&#45;14fcc72e8a5c</title>
<path fill="none" stroke="black" d="M1.21,-26.87C4.74,-26.87 20.94,-26.87 41.77,-26.87"/>
<polygon fill="black" stroke="black" points="41.97,-30.37 51.97,-26.87 41.97,-23.37 41.97,-30.37"/>
<text text-anchor="middle" x="26.66" y="-33.67" font-family="Helvetica,sans-Serif" font-size="14.00">Start</text>
</g>
<!-- end -->
<g id="node2" class="node">
<title>end</title>
</g>
<!-- 2f0fb265&#45;3b49&#45;46f5&#45;bafa&#45;f9a31571a8d6 -->
<g id="node4" class="node">
<title>2f0fb265&#45;3b49&#45;46f5&#45;bafa&#45;f9a31571a8d6</title>
<ellipse fill="#0ee832" stroke="black" cx="411.5" cy="-26.87" rx="107.46" ry="26.74"/>
<text text-anchor="middle" x="411.5" y="-30.67" font-family="Helvetica,sans-Serif" font-size="14.00">✓ Modify</text>
<text text-anchor="middle" x="411.5" y="-15.67" font-family="Helvetica,sans-Serif" font-size="14.00">arpg_mechanics.py</text>
</g>
<!-- 5b3da1b8&#45;92d2&#45;4362&#45;b896&#45;14fcc72e8a5c&#45;&gt;2f0fb265&#45;3b49&#45;46f5&#45;bafa&#45;f9a31571a8d6 -->
<g id="edge1" class="edge">
<title>5b3da1b8&#45;92d2&#45;4362&#45;b896&#45;14fcc72e8a5c&#45;&gt;2f0fb265&#45;3b49&#45;46f5&#45;bafa&#45;f9a31571a8d6</title>
<path fill="none" stroke="black" d="M268.84,-26.87C277.16,-26.87 285.48,-26.87 293.8,-26.87"/>
<polygon fill="black" stroke="black" points="293.95,-30.37 303.95,-26.87 293.95,-23.37 293.95,-30.37"/>
</g>
<!-- 2f0fb265&#45;3b49&#45;46f5&#45;bafa&#45;f9a31571a8d6&#45;&gt;end -->
<g id="edge3" class="edge">
<title>2f0fb265&#45;3b49&#45;46f5&#45;bafa&#45;f9a31571a8d6&#45;&gt;end</title>
<path fill="none" stroke="black" d="M519.25,-26.87C538.32,-26.87 555.39,-26.87 565.83,-26.87"/>
<polygon fill="black" stroke="black" points="565.83,-30.37 575.83,-26.87 565.83,-23.37 565.83,-30.37"/>
<text text-anchor="middle" x="547.49" y="-33.67" font-family="Helvetica,sans-Serif" font-size="14.00">Finish</text>
</g>
</g>
</svg>
