<?xml version="1.0" encoding="UTF-8" standalone="no"?>
<!DOCTYPE svg PUBLIC "-//W3C//DTD SVG 1.1//EN"
 "http://www.w3.org/Graphics/SVG/1.1/DTD/svg11.dtd">
<!-- Generated by graphviz version 2.43.0 (0)
 -->
<!-- Title: %3 Pages: 1 -->
<svg width="1348pt" height="238pt"
 viewBox="0.00 0.00 1347.50 237.74" xmlns="http://www.w3.org/2000/svg" xmlns:xlink="http://www.w3.org/1999/xlink">
<g id="graph0" class="graph" transform="scale(1 1) rotate(0) translate(36 201.74)">
<title>%3</title>
<polygon fill="dimgray" stroke="transparent" points="-36,36 -36,-201.74 1311.5,-201.74 1311.5,36 -36,36"/>
<text text-anchor="middle" x="637.75" y="-150.54" font-family="Helvetica,sans-Serif" font-size="14.00">Sweep&#39;s Plan &amp; Progress</text>
<!-- start -->
<g id="node1" class="node">
<title>start</title>
</g>
<!-- e2355444&#45;75d7&#45;4313&#45;ad19&#45;3cdcd6023742 -->
<g id="node3" class="node">
<title>e2355444&#45;75d7&#45;4313&#45;ad19&#45;3cdcd6023742</title>
<ellipse fill="yellow" stroke="black" cx="208" cy="-99.87" rx="68.68" ry="26.74"/>
<text text-anchor="middle" x="208" y="-103.67" font-family="Helvetica,sans-Serif" font-size="14.00">⋯ Create</text>
<text text-anchor="middle" x="208" y="-88.67" font-family="Helvetica,sans-Serif" font-size="14.00">scenario.py</text>
</g>
<!-- start&#45;&gt;e2355444&#45;75d7&#45;4313&#45;ad19&#45;3cdcd6023742 -->
<g id="edge8" class="edge">
<title>start&#45;&gt;e2355444&#45;75d7&#45;4313&#45;ad19&#45;3cdcd6023742</title>
<path fill="none" stroke="black" d="M87.77,-99.87C91.56,-99.87 108.81,-99.87 129.11,-99.87"/>
<polygon fill="black" stroke="black" points="129.28,-103.37 139.28,-99.87 129.28,-96.37 129.28,-103.37"/>
<text text-anchor="middle" x="113.46" y="-106.67" font-family="Helvetica,sans-Serif" font-size="14.00">Start</text>
</g>
<!-- end -->
<g id="node2" class="node">
<title>end</title>
</g>
<!-- 0e1c4148&#45;f31b&#45;4f19&#45;b76e&#45;32af21685e7f -->
<g id="node4" class="node">
<title>0e1c4148&#45;f31b&#45;4f19&#45;b76e&#45;32af21685e7f</title>
<ellipse fill="white" stroke="black" cx="432" cy="-99.87" rx="54.39" ry="26.74"/>
<text text-anchor="middle" x="432" y="-103.67" font-family="Helvetica,sans-Serif" font-size="14.00">▶ Modify</text>
<text text-anchor="middle" x="432" y="-88.67" font-family="Helvetica,sans-Serif" font-size="14.00">init.py</text>
</g>
<!-- e2355444&#45;75d7&#45;4313&#45;ad19&#45;3cdcd6023742&#45;&gt;0e1c4148&#45;f31b&#45;4f19&#45;b76e&#45;32af21685e7f -->
<g id="edge2" class="edge">
<title>e2355444&#45;75d7&#45;4313&#45;ad19&#45;3cdcd6023742&#45;&gt;0e1c4148&#45;f31b&#45;4f19&#45;b76e&#45;32af21685e7f</title>
<path fill="none" stroke="black" d="M276.69,-99.87C306.85,-99.87 337.01,-99.87 367.17,-99.87"/>
<polygon fill="black" stroke="black" points="367.4,-103.37 377.4,-99.87 367.4,-96.37 367.4,-103.37"/>
</g>
<!-- 5e73ef0a&#45;c82e&#45;4538&#45;bfd9&#45;35ae45e40d4e -->
<g id="node7" class="node">
<title>5e73ef0a&#45;c82e&#45;4538&#45;bfd9&#45;35ae45e40d4e</title>
<polygon fill="white" stroke="black" points="288,-36 0,-36 0,0 288,0 288,-36"/>
<text text-anchor="middle" x="144" y="-14.3" font-family="Helvetica,sans-Serif" font-size="14.00">▶ Run GitHub Actions for `scenario.py`</text>
</g>
<!-- e2355444&#45;75d7&#45;4313&#45;ad19&#45;3cdcd6023742&#45;&gt;5e73ef0a&#45;c82e&#45;4538&#45;bfd9&#45;35ae45e40d4e -->
<g id="edge1" class="edge">
<title>e2355444&#45;75d7&#45;4313&#45;ad19&#45;3cdcd6023742&#45;&gt;5e73ef0a&#45;c82e&#45;4538&#45;bfd9&#45;35ae45e40d4e</title>
<path fill="none" stroke="black" stroke-dasharray="5,2" d="M188.1,-74.04C180.49,-64.54 171.82,-53.72 164.19,-44.19"/>
<polygon fill="black" stroke="black" points="166.79,-41.84 157.8,-36.22 161.32,-46.22 166.79,-41.84"/>
</g>
<!-- 432cecc9&#45;9001&#45;45eb&#45;a424&#45;0874ba5f5642 -->
<g id="node5" class="node">
<title>432cecc9&#45;9001&#45;45eb&#45;a424&#45;0874ba5f5642</title>
<ellipse fill="white" stroke="black" cx="745" cy="-99.87" rx="104.8" ry="26.74"/>
<text text-anchor="middle" x="745" y="-103.67" font-family="Helvetica,sans-Serif" font-size="14.00">▶ Modify</text>
<text text-anchor="middle" x="745" y="-88.67" font-family="Helvetica,sans-Serif" font-size="14.00">target&#45;projectile.py</text>
</g>
<!-- 0e1c4148&#45;f31b&#45;4f19&#45;b76e&#45;32af21685e7f&#45;&gt;432cecc9&#45;9001&#45;45eb&#45;a424&#45;0874ba5f5642 -->
<g id="edge4" class="edge">
<title>0e1c4148&#45;f31b&#45;4f19&#45;b76e&#45;32af21685e7f&#45;&gt;432cecc9&#45;9001&#45;45eb&#45;a424&#45;0874ba5f5642</title>
<path fill="none" stroke="black" d="M486.71,-99.87C534.52,-99.87 582.32,-99.87 630.12,-99.87"/>
<polygon fill="black" stroke="black" points="630.32,-103.37 640.32,-99.87 630.32,-96.37 630.32,-103.37"/>
</g>
<!-- 7b4909f3&#45;1e17&#45;4641&#45;b974&#45;611e06f22cb2 -->
<g id="node8" class="node">
<title>7b4909f3&#45;1e17&#45;4641&#45;b974&#45;611e06f22cb2</title>
<polygon fill="white" stroke="black" points="557.5,-36 306.5,-36 306.5,0 557.5,0 557.5,-36"/>
<text text-anchor="middle" x="432" y="-14.3" font-family="Helvetica,sans-Serif" font-size="14.00">▶ Run GitHub Actions for `init.py`</text>
</g>
<!-- 0e1c4148&#45;f31b&#45;4f19&#45;b76e&#45;32af21685e7f&#45;&gt;7b4909f3&#45;1e17&#45;4641&#45;b974&#45;611e06f22cb2 -->
<g id="edge3" class="edge">
<title>0e1c4148&#45;f31b&#45;4f19&#45;b76e&#45;32af21685e7f&#45;&gt;7b4909f3&#45;1e17&#45;4641&#45;b974&#45;611e06f22cb2</title>
<path fill="none" stroke="black" stroke-dasharray="5,2" d="M432,-72.72C432,-64.27 432,-54.89 432,-46.36"/>
<polygon fill="black" stroke="black" points="435.5,-46.15 432,-36.15 428.5,-46.15 435.5,-46.15"/>
</g>
<!-- 96b745e6&#45;3229&#45;46e4&#45;ab98&#45;688c67fb7729 -->
<g id="node6" class="node">
<title>96b745e6&#45;3229&#45;46e4&#45;ab98&#45;688c67fb7729</title>
<ellipse fill="white" stroke="black" cx="1049" cy="-99.87" rx="107.46" ry="26.74"/>
<text text-anchor="middle" x="1049" y="-103.67" font-family="Helvetica,sans-Serif" font-size="14.00">▶ Modify</text>
<text text-anchor="middle" x="1049" y="-88.67" font-family="Helvetica,sans-Serif" font-size="14.00">arpg_mechanics.py</text>
</g>
<!-- 432cecc9&#45;9001&#45;45eb&#45;a424&#45;0874ba5f5642&#45;&gt;96b745e6&#45;3229&#45;46e4&#45;ab98&#45;688c67fb7729 -->
<g id="edge6" class="edge">
<title>432cecc9&#45;9001&#45;45eb&#45;a424&#45;0874ba5f5642&#45;&gt;96b745e6&#45;3229&#45;46e4&#45;ab98&#45;688c67fb7729</title>
<path fill="none" stroke="black" d="M849.8,-99.87C876.94,-99.87 904.08,-99.87 931.23,-99.87"/>
<polygon fill="black" stroke="black" points="931.23,-103.37 941.23,-99.87 931.23,-96.37 931.23,-103.37"/>
</g>
<!-- 685fe93b&#45;c675&#45;4907&#45;9896&#45;b0e85a15f547 -->
<g id="node9" class="node">
<title>685fe93b&#45;c675&#45;4907&#45;9896&#45;b0e85a15f547</title>
<polygon fill="white" stroke="black" points="914.5,-36 575.5,-36 575.5,0 914.5,0 914.5,-36"/>
<text text-anchor="middle" x="745" y="-14.3" font-family="Helvetica,sans-Serif" font-size="14.00">▶ Run GitHub Actions for `target&#45;projectile.py`</text>
</g>
<!-- 432cecc9&#45;9001&#45;45eb&#45;a424&#45;0874ba5f5642&#45;&gt;685fe93b&#45;c675&#45;4907&#45;9896&#45;b0e85a15f547 -->
<g id="edge5" class="edge">
<title>432cecc9&#45;9001&#45;45eb&#45;a424&#45;0874ba5f5642&#45;&gt;685fe93b&#45;c675&#45;4907&#45;9896&#45;b0e85a15f547</title>
<path fill="none" stroke="black" stroke-dasharray="5,2" d="M745,-72.72C745,-64.27 745,-54.89 745,-46.36"/>
<polygon fill="black" stroke="black" points="748.5,-46.15 745,-36.15 741.5,-46.15 748.5,-46.15"/>
</g>
<!-- 96b745e6&#45;3229&#45;46e4&#45;ab98&#45;688c67fb7729&#45;&gt;end -->
<g id="edge9" class="edge">
<title>96b745e6&#45;3229&#45;46e4&#45;ab98&#45;688c67fb7729&#45;&gt;end</title>
<path fill="none" stroke="black" d="M1156.75,-99.87C1175.82,-99.87 1192.89,-99.87 1203.33,-99.87"/>
<polygon fill="black" stroke="black" points="1203.33,-103.37 1213.33,-99.87 1203.33,-96.37 1203.33,-103.37"/>
<text text-anchor="middle" x="1184.99" y="-106.67" font-family="Helvetica,sans-Serif" font-size="14.00">Finish</text>
</g>
<!-- 3c5a3a10&#45;81c6&#45;49d4&#45;9b12&#45;49cef394a0e0 -->
<g id="node10" class="node">
<title>3c5a3a10&#45;81c6&#45;49d4&#45;9b12&#45;49cef394a0e0</title>
<polygon fill="white" stroke="black" points="1275.5,-36 932.5,-36 932.5,0 1275.5,0 1275.5,-36"/>
<text text-anchor="middle" x="1104" y="-14.3" font-family="Helvetica,sans-Serif" font-size="14.00">▶ Run GitHub Actions for `arpg_mechanics.py`</text>
</g>
<!-- 96b745e6&#45;3229&#45;46e4&#45;ab98&#45;688c67fb7729&#45;&gt;3c5a3a10&#45;81c6&#45;49d4&#45;9b12&#45;49cef394a0e0 -->
<g id="edge7" class="edge">
<title>96b745e6&#45;3229&#45;46e4&#45;ab98&#45;688c67fb7729&#45;&gt;3c5a3a10&#45;81c6&#45;49d4&#45;9b12&#45;49cef394a0e0</title>
<path fill="none" stroke="black" stroke-dasharray="5,2" d="M1066.71,-73.16C1072.99,-64.04 1080.05,-53.77 1086.33,-44.65"/>
<polygon fill="black" stroke="black" points="1089.27,-46.56 1092.06,-36.34 1083.51,-42.59 1089.27,-46.56"/>
</g>
</g>
</svg>
