<?xml version="1.0" encoding="UTF-8" standalone="no"?>
<!DOCTYPE svg PUBLIC "-//W3C//DTD SVG 1.1//EN"
 "http://www.w3.org/Graphics/SVG/1.1/DTD/svg11.dtd">
<!-- Generated by graphviz version 2.43.0 (0)
 -->
<!-- Title: %3 Pages: 1 -->
<svg width="771pt" height="238pt"
 viewBox="0.00 0.00 770.50 237.74" xmlns="http://www.w3.org/2000/svg" xmlns:xlink="http://www.w3.org/1999/xlink">
<g id="graph0" class="graph" transform="scale(1 1) rotate(0) translate(36 201.74)">
<title>%3</title>
<polygon fill="dimgray" stroke="transparent" points="-36,36 -36,-201.74 734.5,-201.74 734.5,36 -36,36"/>
<text text-anchor="middle" x="349.25" y="-150.54" font-family="Helvetica,sans-Serif" font-size="14.00">Sweep&#39;s Plan &amp; Progress</text>
<!-- start -->
<g id="node1" class="node">
<title>start</title>
</g>
<!-- a2356cbb&#45;8825&#45;41bd&#45;90b6&#45;0f421cd5218e -->
<g id="node3" class="node">
<title>a2356cbb&#45;8825&#45;41bd&#45;90b6&#45;0f421cd5218e</title>
<ellipse fill="#0ee832" stroke="black" cx="226" cy="-99.87" rx="101.23" ry="26.74"/>
<text text-anchor="middle" x="226" y="-103.67" font-family="Helvetica,sans-Serif" font-size="14.00">✓ Create</text>
<text text-anchor="middle" x="226" y="-88.67" font-family="Helvetica,sans-Serif" font-size="14.00">battle_scenario.py</text>
</g>
<!-- start&#45;&gt;a2356cbb&#45;8825&#45;41bd&#45;90b6&#45;0f421cd5218e -->
<g id="edge4" class="edge">
<title>start&#45;&gt;a2356cbb&#45;8825&#45;41bd&#45;90b6&#45;0f421cd5218e</title>
<path fill="none" stroke="black" d="M73.68,-99.87C77.16,-99.87 93.59,-99.87 114.46,-99.87"/>
<polygon fill="black" stroke="black" points="114.67,-103.37 124.67,-99.87 114.67,-96.37 114.67,-103.37"/>
<text text-anchor="middle" x="99.19" y="-106.67" font-family="Helvetica,sans-Serif" font-size="14.00">Start</text>
</g>
<!-- end -->
<g id="node2" class="node">
<title>end</title>
</g>
<!-- d9f078b1&#45;1b10&#45;446b&#45;868e&#45;472f4b94e543 -->
<g id="node4" class="node">
<title>d9f078b1&#45;1b10&#45;446b&#45;868e&#45;472f4b94e543</title>
<ellipse fill="white" stroke="black" cx="499" cy="-99.87" rx="107.46" ry="26.74"/>
<text text-anchor="middle" x="499" y="-103.67" font-family="Helvetica,sans-Serif" font-size="14.00">▶ Modify</text>
<text text-anchor="middle" x="499" y="-88.67" font-family="Helvetica,sans-Serif" font-size="14.00">arpg_mechanics.py</text>
</g>
<!-- a2356cbb&#45;8825&#45;41bd&#45;90b6&#45;0f421cd5218e&#45;&gt;d9f078b1&#45;1b10&#45;446b&#45;868e&#45;472f4b94e543 -->
<g id="edge2" class="edge">
<title>a2356cbb&#45;8825&#45;41bd&#45;90b6&#45;0f421cd5218e&#45;&gt;d9f078b1&#45;1b10&#45;446b&#45;868e&#45;472f4b94e543</title>
<path fill="none" stroke="black" d="M327.31,-99.87C345.32,-99.87 363.34,-99.87 381.35,-99.87"/>
<polygon fill="black" stroke="black" points="381.36,-103.37 391.36,-99.87 381.36,-96.37 381.36,-103.37"/>
</g>
<!-- c60b75ca&#45;ca0a&#45;414b&#45;8ff4&#45;023c1ba1f17b -->
<g id="node5" class="node">
<title>c60b75ca&#45;ca0a&#45;414b&#45;8ff4&#45;023c1ba1f17b</title>
<polygon fill="yellow" stroke="black" points="338,-36 0,-36 0,0 338,0 338,-36"/>
<text text-anchor="middle" x="169" y="-14.3" font-family="Helvetica,sans-Serif" font-size="14.00">⋯ Run GitHub Actions for `battle_scenario.py`</text>
</g>
<!-- a2356cbb&#45;8825&#45;41bd&#45;90b6&#45;0f421cd5218e&#45;&gt;c60b75ca&#45;ca0a&#45;414b&#45;8ff4&#45;023c1ba1f17b -->
<g id="edge1" class="edge">
<title>a2356cbb&#45;8825&#45;41bd&#45;90b6&#45;0f421cd5218e&#45;&gt;c60b75ca&#45;ca0a&#45;414b&#45;8ff4&#45;023c1ba1f17b</title>
<path fill="none" stroke="black" stroke-dasharray="5,2" d="M207.65,-73.16C201.14,-64.04 193.82,-53.77 187.31,-44.65"/>
<polygon fill="black" stroke="black" points="190.03,-42.44 181.37,-36.34 184.33,-46.51 190.03,-42.44"/>
</g>
<!-- d9f078b1&#45;1b10&#45;446b&#45;868e&#45;472f4b94e543&#45;&gt;end -->
<g id="edge5" class="edge">
<title>d9f078b1&#45;1b10&#45;446b&#45;868e&#45;472f4b94e543&#45;&gt;end</title>
<path fill="none" stroke="black" d="M606.75,-99.87C625.82,-99.87 642.89,-99.87 653.33,-99.87"/>
<polygon fill="black" stroke="black" points="653.33,-103.37 663.33,-99.87 653.33,-96.37 653.33,-103.37"/>
<text text-anchor="middle" x="634.99" y="-106.67" font-family="Helvetica,sans-Serif" font-size="14.00">Finish</text>
</g>
<!-- 0c5586cc&#45;7537&#45;4b87&#45;abcb&#45;34fd3a813c86 -->
<g id="node6" class="node">
<title>0c5586cc&#45;7537&#45;4b87&#45;abcb&#45;34fd3a813c86</title>
<polygon fill="white" stroke="black" points="698.5,-36 355.5,-36 355.5,0 698.5,0 698.5,-36"/>
<text text-anchor="middle" x="527" y="-14.3" font-family="Helvetica,sans-Serif" font-size="14.00">▶ Run GitHub Actions for `arpg_mechanics.py`</text>
</g>
<!-- d9f078b1&#45;1b10&#45;446b&#45;868e&#45;472f4b94e543&#45;&gt;0c5586cc&#45;7537&#45;4b87&#45;abcb&#45;34fd3a813c86 -->
<g id="edge3" class="edge">
<title>d9f078b1&#45;1b10&#45;446b&#45;868e&#45;472f4b94e543&#45;&gt;0c5586cc&#45;7537&#45;4b87&#45;abcb&#45;34fd3a813c86</title>
<path fill="none" stroke="black" stroke-dasharray="5,2" d="M508.17,-72.72C511.19,-64.08 514.56,-54.47 517.61,-45.79"/>
<polygon fill="black" stroke="black" points="520.98,-46.74 520.99,-36.15 514.38,-44.43 520.98,-46.74"/>
</g>
</g>
</svg>
