<?xml version="1.0" encoding="UTF-8" standalone="no"?>
<!DOCTYPE svg PUBLIC "-//W3C//DTD SVG 1.1//EN"
 "http://www.w3.org/Graphics/SVG/1.1/DTD/svg11.dtd">
<!-- Generated by graphviz version 2.43.0 (0)
 -->
<!-- Title: %3 Pages: 1 -->
<svg width="1333pt" height="238pt"
 viewBox="0.00 0.00 1333.00 237.74" xmlns="http://www.w3.org/2000/svg" xmlns:xlink="http://www.w3.org/1999/xlink">
<g id="graph0" class="graph" transform="scale(1 1) rotate(0) translate(36 201.74)">
<title>%3</title>
<polygon fill="dimgray" stroke="transparent" points="-36,36 -36,-201.74 1297,-201.74 1297,36 -36,36"/>
<text text-anchor="middle" x="630.5" y="-150.54" font-family="Helvetica,sans-Serif" font-size="14.00">Sweep&#39;s Plan &amp; Progress</text>
<!-- start -->
<g id="node1" class="node">
<title>start</title>
</g>
<!-- 8d345987&#45;c83a&#45;45f5&#45;8f3b&#45;129cc70dc2cc -->
<g id="node3" class="node">
<title>8d345987&#45;c83a&#45;45f5&#45;8f3b&#45;129cc70dc2cc</title>
<ellipse fill="#0ee832" stroke="black" cx="231" cy="-99.87" rx="107.46" ry="26.74"/>
<text text-anchor="middle" x="231" y="-103.67" font-family="Helvetica,sans-Serif" font-size="14.00">✓ Create</text>
<text text-anchor="middle" x="231" y="-88.67" font-family="Helvetica,sans-Serif" font-size="14.00">arpg_mechanics.py</text>
</g>
<!-- start&#45;&gt;8d345987&#45;c83a&#45;45f5&#45;8f3b&#45;129cc70dc2cc -->
<g id="edge8" class="edge">
<title>start&#45;&gt;8d345987&#45;c83a&#45;45f5&#45;8f3b&#45;129cc70dc2cc</title>
<path fill="none" stroke="black" d="M72.71,-99.87C76.21,-99.87 92.32,-99.87 113.01,-99.87"/>
<polygon fill="black" stroke="black" points="113.15,-103.37 123.15,-99.87 113.15,-96.37 113.15,-103.37"/>
<text text-anchor="middle" x="98.01" y="-106.67" font-family="Helvetica,sans-Serif" font-size="14.00">Start</text>
</g>
<!-- end -->
<g id="node2" class="node">
<title>end</title>
</g>
<!-- 5509761a&#45;b53f&#45;4ac5&#45;bd90&#45;d7f712e2c604 -->
<g id="node4" class="node">
<title>5509761a&#45;b53f&#45;4ac5&#45;bd90&#45;d7f712e2c604</title>
<ellipse fill="#0ee832" stroke="black" cx="489" cy="-99.87" rx="55.72" ry="26.74"/>
<text text-anchor="middle" x="489" y="-103.67" font-family="Helvetica,sans-Serif" font-size="14.00">✓ Modify</text>
<text text-anchor="middle" x="489" y="-88.67" font-family="Helvetica,sans-Serif" font-size="14.00">init.py</text>
</g>
<!-- 8d345987&#45;c83a&#45;45f5&#45;8f3b&#45;129cc70dc2cc&#45;&gt;5509761a&#45;b53f&#45;4ac5&#45;bd90&#45;d7f712e2c604 -->
<g id="edge2" class="edge">
<title>8d345987&#45;c83a&#45;45f5&#45;8f3b&#45;129cc70dc2cc&#45;&gt;5509761a&#45;b53f&#45;4ac5&#45;bd90&#45;d7f712e2c604</title>
<path fill="none" stroke="black" d="M338.58,-99.87C366.58,-99.87 394.58,-99.87 422.57,-99.87"/>
<polygon fill="black" stroke="black" points="422.89,-103.37 432.89,-99.87 422.89,-96.37 422.89,-103.37"/>
</g>
<!-- 4467e244&#45;879c&#45;4bca&#45;80cc&#45;77c820e2206a -->
<g id="node7" class="node">
<title>4467e244&#45;879c&#45;4bca&#45;80cc&#45;77c820e2206a</title>
<polygon fill="#0ee832" stroke="black" points="344,-36 0,-36 0,0 344,0 344,-36"/>
<text text-anchor="middle" x="172" y="-14.3" font-family="Helvetica,sans-Serif" font-size="14.00">✓ Run GitHub Actions for `arpg_mechanics.py`</text>
</g>
<!-- 8d345987&#45;c83a&#45;45f5&#45;8f3b&#45;129cc70dc2cc&#45;&gt;4467e244&#45;879c&#45;4bca&#45;80cc&#45;77c820e2206a -->
<g id="edge1" class="edge">
<title>8d345987&#45;c83a&#45;45f5&#45;8f3b&#45;129cc70dc2cc&#45;&gt;4467e244&#45;879c&#45;4bca&#45;80cc&#45;77c820e2206a</title>
<path fill="none" stroke="black" stroke-dasharray="5,2" d="M212.01,-73.16C205.27,-64.04 197.69,-53.77 190.95,-44.65"/>
<polygon fill="black" stroke="black" points="193.56,-42.3 184.81,-36.34 187.93,-46.46 193.56,-42.3"/>
</g>
<!-- 456a041d&#45;2ffb&#45;4246&#45;a0c6&#45;8e36e2d9054d -->
<g id="node5" class="node">
<title>456a041d&#45;2ffb&#45;4246&#45;a0c6&#45;8e36e2d9054d</title>
<ellipse fill="white" stroke="black" cx="803" cy="-99.87" rx="104.8" ry="26.74"/>
<text text-anchor="middle" x="803" y="-103.67" font-family="Helvetica,sans-Serif" font-size="14.00">▶ Modify</text>
<text text-anchor="middle" x="803" y="-88.67" font-family="Helvetica,sans-Serif" font-size="14.00">target&#45;projectile.py</text>
</g>
<!-- 5509761a&#45;b53f&#45;4ac5&#45;bd90&#45;d7f712e2c604&#45;&gt;456a041d&#45;2ffb&#45;4246&#45;a0c6&#45;8e36e2d9054d -->
<g id="edge4" class="edge">
<title>5509761a&#45;b53f&#45;4ac5&#45;bd90&#45;d7f712e2c604&#45;&gt;456a041d&#45;2ffb&#45;4246&#45;a0c6&#45;8e36e2d9054d</title>
<path fill="none" stroke="black" d="M545.12,-99.87C592.77,-99.87 640.42,-99.87 688.07,-99.87"/>
<polygon fill="black" stroke="black" points="688.23,-103.37 698.23,-99.87 688.23,-96.37 688.23,-103.37"/>
</g>
<!-- dd999c6f&#45;785a&#45;4d41&#45;bfe7&#45;930a87ece16e -->
<g id="node8" class="node">
<title>dd999c6f&#45;785a&#45;4d41&#45;bfe7&#45;930a87ece16e</title>
<polygon fill="#0ee832" stroke="black" points="615.5,-36 362.5,-36 362.5,0 615.5,0 615.5,-36"/>
<text text-anchor="middle" x="489" y="-14.3" font-family="Helvetica,sans-Serif" font-size="14.00">✓ Run GitHub Actions for `init.py`</text>
</g>
<!-- 5509761a&#45;b53f&#45;4ac5&#45;bd90&#45;d7f712e2c604&#45;&gt;dd999c6f&#45;785a&#45;4d41&#45;bfe7&#45;930a87ece16e -->
<g id="edge3" class="edge">
<title>5509761a&#45;b53f&#45;4ac5&#45;bd90&#45;d7f712e2c604&#45;&gt;dd999c6f&#45;785a&#45;4d41&#45;bfe7&#45;930a87ece16e</title>
<path fill="none" stroke="black" stroke-dasharray="5,2" d="M489,-72.72C489,-64.27 489,-54.89 489,-46.36"/>
<polygon fill="black" stroke="black" points="492.5,-46.15 489,-36.15 485.5,-46.15 492.5,-46.15"/>
</g>
<!-- 72fbb9a0&#45;eb1a&#45;4b62&#45;83b5&#45;0423c325b514 -->
<g id="node6" class="node">
<title>72fbb9a0&#45;eb1a&#45;4b62&#45;83b5&#45;0423c325b514</title>
<ellipse fill="white" stroke="black" cx="1063" cy="-99.87" rx="55.72" ry="26.74"/>
<text text-anchor="middle" x="1063" y="-103.67" font-family="Helvetica,sans-Serif" font-size="14.00">▶ Modify</text>
<text text-anchor="middle" x="1063" y="-88.67" font-family="Helvetica,sans-Serif" font-size="14.00">script.txt</text>
</g>
<!-- 456a041d&#45;2ffb&#45;4246&#45;a0c6&#45;8e36e2d9054d&#45;&gt;72fbb9a0&#45;eb1a&#45;4b62&#45;83b5&#45;0423c325b514 -->
<g id="edge6" class="edge">
<title>456a041d&#45;2ffb&#45;4246&#45;a0c6&#45;8e36e2d9054d&#45;&gt;72fbb9a0&#45;eb1a&#45;4b62&#45;83b5&#45;0423c325b514</title>
<path fill="none" stroke="black" d="M907.86,-99.87C937.54,-99.87 967.21,-99.87 996.88,-99.87"/>
<polygon fill="black" stroke="black" points="996.94,-103.37 1006.94,-99.87 996.94,-96.37 996.94,-103.37"/>
</g>
<!-- 84638b25&#45;eb21&#45;4321&#45;a069&#45;3ba25fbf7a06 -->
<g id="node9" class="node">
<title>84638b25&#45;eb21&#45;4321&#45;a069&#45;3ba25fbf7a06</title>
<polygon fill="white" stroke="black" points="972.5,-36 633.5,-36 633.5,0 972.5,0 972.5,-36"/>
<text text-anchor="middle" x="803" y="-14.3" font-family="Helvetica,sans-Serif" font-size="14.00">▶ Run GitHub Actions for `target&#45;projectile.py`</text>
</g>
<!-- 456a041d&#45;2ffb&#45;4246&#45;a0c6&#45;8e36e2d9054d&#45;&gt;84638b25&#45;eb21&#45;4321&#45;a069&#45;3ba25fbf7a06 -->
<g id="edge5" class="edge">
<title>456a041d&#45;2ffb&#45;4246&#45;a0c6&#45;8e36e2d9054d&#45;&gt;84638b25&#45;eb21&#45;4321&#45;a069&#45;3ba25fbf7a06</title>
<path fill="none" stroke="black" stroke-dasharray="5,2" d="M803,-72.72C803,-64.27 803,-54.89 803,-46.36"/>
<polygon fill="black" stroke="black" points="806.5,-46.15 803,-36.15 799.5,-46.15 806.5,-46.15"/>
</g>
<!-- 72fbb9a0&#45;eb1a&#45;4b62&#45;83b5&#45;0423c325b514&#45;&gt;end -->
<g id="edge9" class="edge">
<title>72fbb9a0&#45;eb1a&#45;4b62&#45;83b5&#45;0423c325b514&#45;&gt;end</title>
<path fill="none" stroke="black" d="M1119,-99.87C1136.96,-99.87 1155.06,-99.87 1166.15,-99.87"/>
<polygon fill="black" stroke="black" points="1166.26,-103.37 1176.26,-99.87 1166.26,-96.37 1166.26,-103.37"/>
<text text-anchor="middle" x="1147.68" y="-106.67" font-family="Helvetica,sans-Serif" font-size="14.00">Finish</text>
</g>
<!-- 97551997&#45;1d20&#45;49a5&#45;a06e&#45;f4e745f7bf5f -->
<g id="node10" class="node">
<title>97551997&#45;1d20&#45;49a5&#45;a06e&#45;f4e745f7bf5f</title>
<polygon fill="white" stroke="black" points="1261,-36 991,-36 991,0 1261,0 1261,-36"/>
<text text-anchor="middle" x="1126" y="-14.3" font-family="Helvetica,sans-Serif" font-size="14.00">▶ Run GitHub Actions for `script.txt`</text>
</g>
<!-- 72fbb9a0&#45;eb1a&#45;4b62&#45;83b5&#45;0423c325b514&#45;&gt;97551997&#45;1d20&#45;49a5&#45;a06e&#45;f4e745f7bf5f -->
<g id="edge7" class="edge">
<title>72fbb9a0&#45;eb1a&#45;4b62&#45;83b5&#45;0423c325b514&#45;&gt;97551997&#45;1d20&#45;49a5&#45;a06e&#45;f4e745f7bf5f</title>
<path fill="none" stroke="black" stroke-dasharray="5,2" d="M1082.24,-74.47C1089.8,-64.89 1098.47,-53.9 1106.09,-44.24"/>
<polygon fill="black" stroke="black" points="1109.02,-46.18 1112.46,-36.16 1103.52,-41.85 1109.02,-46.18"/>
</g>
</g>
</svg>
