<?xml version="1.0" encoding="UTF-8" standalone="no"?>
<!DOCTYPE svg PUBLIC "-//W3C//DTD SVG 1.1//EN"
 "http://www.w3.org/Graphics/SVG/1.1/DTD/svg11.dtd">
<!-- Generated by graphviz version 2.43.0 (0)
 -->
<!-- Title: %3 Pages: 1 -->
<svg width="419pt" height="238pt"
 viewBox="0.00 0.00 419.00 237.74" xmlns="http://www.w3.org/2000/svg" xmlns:xlink="http://www.w3.org/1999/xlink">
<g id="graph0" class="graph" transform="scale(1 1) rotate(0) translate(36 201.74)">
<title>%3</title>
<polygon fill="dimgray" stroke="transparent" points="-36,36 -36,-201.74 383,-201.74 383,36 -36,36"/>
<text text-anchor="middle" x="173.5" y="-150.54" font-family="Helvetica,sans-Serif" font-size="14.00">Sweep&#39;s Plan &amp; Progress</text>
<!-- start -->
<g id="node1" class="node">
<title>start</title>
</g>
<!-- db24c4c5&#45;cf84&#45;4398&#45;b526&#45;46603c6ae6c6 -->
<g id="node3" class="node">
<title>db24c4c5&#45;cf84&#45;4398&#45;b526&#45;46603c6ae6c6</title>
<ellipse fill="#0ee832" stroke="black" cx="173.5" cy="-99.87" rx="107.46" ry="26.74"/>
<text text-anchor="middle" x="173.5" y="-103.67" font-family="Helvetica,sans-Serif" font-size="14.00">✓ Modify</text>
<text text-anchor="middle" x="173.5" y="-88.67" font-family="Helvetica,sans-Serif" font-size="14.00">arpg_mechanics.py</text>
</g>
<!-- start&#45;&gt;db24c4c5&#45;cf84&#45;4398&#45;b526&#45;46603c6ae6c6 -->
<g id="edge2" class="edge">
<title>start&#45;&gt;db24c4c5&#45;cf84&#45;4398&#45;b526&#45;46603c6ae6c6</title>
<path fill="none" stroke="black" d="M15.21,-99.87C18.71,-99.87 34.82,-99.87 55.51,-99.87"/>
<polygon fill="black" stroke="black" points="55.65,-103.37 65.65,-99.87 55.65,-96.37 55.65,-103.37"/>
<text text-anchor="middle" x="40.51" y="-106.67" font-family="Helvetica,sans-Serif" font-size="14.00">Start</text>
</g>
<!-- end -->
<g id="node2" class="node">
<title>end</title>
</g>
<!-- db24c4c5&#45;cf84&#45;4398&#45;b526&#45;46603c6ae6c6&#45;&gt;end -->
<g id="edge3" class="edge">
<title>db24c4c5&#45;cf84&#45;4398&#45;b526&#45;46603c6ae6c6&#45;&gt;end</title>
<path fill="none" stroke="black" d="M281.25,-99.87C300.32,-99.87 317.39,-99.87 327.83,-99.87"/>
<polygon fill="black" stroke="black" points="327.83,-103.37 337.83,-99.87 327.83,-96.37 327.83,-103.37"/>
<text text-anchor="middle" x="309.49" y="-106.67" font-family="Helvetica,sans-Serif" font-size="14.00">Finish</text>
</g>
<!-- 0e73437e&#45;39e5&#45;4bf0&#45;91f7&#45;7abc866b00e6 -->
<g id="node4" class="node">
<title>0e73437e&#45;39e5&#45;4bf0&#45;91f7&#45;7abc866b00e6</title>
<polygon fill="yellow" stroke="black" points="347,-36 0,-36 0,0 347,0 347,-36"/>
<text text-anchor="middle" x="173.5" y="-14.3" font-family="Helvetica,sans-Serif" font-size="14.00">⋯ Run GitHub Actions for `arpg_mechanics.py`</text>
</g>
<!-- db24c4c5&#45;cf84&#45;4398&#45;b526&#45;46603c6ae6c6&#45;&gt;0e73437e&#45;39e5&#45;4bf0&#45;91f7&#45;7abc866b00e6 -->
<g id="edge1" class="edge">
<title>db24c4c5&#45;cf84&#45;4398&#45;b526&#45;46603c6ae6c6&#45;&gt;0e73437e&#45;39e5&#45;4bf0&#45;91f7&#45;7abc866b00e6</title>
<path fill="none" stroke="black" stroke-dasharray="5,2" d="M173.5,-72.72C173.5,-64.27 173.5,-54.89 173.5,-46.36"/>
<polygon fill="black" stroke="black" points="177,-46.15 173.5,-36.15 170,-46.15 177,-46.15"/>
</g>
</g>
</svg>
