<?xml version="1.0" encoding="UTF-8" standalone="no"?>
<!DOCTYPE svg PUBLIC "-//W3C//DTD SVG 1.1//EN"
 "http://www.w3.org/Graphics/SVG/1.1/DTD/svg11.dtd">
<!-- Generated by graphviz version 2.43.0 (0)
 -->
<!-- Title: %3 Pages: 1 -->
<svg width="1143pt" height="238pt"
 viewBox="0.00 0.00 1142.50 237.74" xmlns="http://www.w3.org/2000/svg" xmlns:xlink="http://www.w3.org/1999/xlink">
<g id="graph0" class="graph" transform="scale(1 1) rotate(0) translate(36 201.74)">
<title>%3</title>
<polygon fill="dimgray" stroke="transparent" points="-36,36 -36,-201.74 1106.5,-201.74 1106.5,36 -36,36"/>
<text text-anchor="middle" x="535.25" y="-150.54" font-family="Helvetica,sans-Serif" font-size="14.00">Sweep&#39;s Plan &amp; Progress</text>
<!-- start -->
<g id="node1" class="node">
<title>start</title>
</g>
<!-- 484a7297&#45;9508&#45;405a&#45;8850&#45;175aabcc2ace -->
<g id="node3" class="node">
<title>484a7297&#45;9508&#45;405a&#45;8850&#45;175aabcc2ace</title>
<ellipse fill="#0ee832" stroke="black" cx="229.5" cy="-99.87" rx="107.46" ry="26.74"/>
<text text-anchor="middle" x="229.5" y="-103.67" font-family="Helvetica,sans-Serif" font-size="14.00">✓ Modify</text>
<text text-anchor="middle" x="229.5" y="-88.67" font-family="Helvetica,sans-Serif" font-size="14.00">arpg_mechanics.py</text>
</g>
<!-- start&#45;&gt;484a7297&#45;9508&#45;405a&#45;8850&#45;175aabcc2ace -->
<g id="edge6" class="edge">
<title>start&#45;&gt;484a7297&#45;9508&#45;405a&#45;8850&#45;175aabcc2ace</title>
<path fill="none" stroke="black" d="M71.21,-99.87C74.71,-99.87 90.82,-99.87 111.51,-99.87"/>
<polygon fill="black" stroke="black" points="111.65,-103.37 121.65,-99.87 111.65,-96.37 111.65,-103.37"/>
<text text-anchor="middle" x="96.51" y="-106.67" font-family="Helvetica,sans-Serif" font-size="14.00">Start</text>
</g>
<!-- end -->
<g id="node2" class="node">
<title>end</title>
</g>
<!-- e3233cc5&#45;611e&#45;4409&#45;9843&#45;2ffac2be70bf -->
<g id="node4" class="node">
<title>e3233cc5&#45;611e&#45;4409&#45;9843&#45;2ffac2be70bf</title>
<ellipse fill="white" stroke="black" cx="536.5" cy="-99.87" rx="107.46" ry="26.74"/>
<text text-anchor="middle" x="536.5" y="-103.67" font-family="Helvetica,sans-Serif" font-size="14.00">▶ Modify</text>
<text text-anchor="middle" x="536.5" y="-88.67" font-family="Helvetica,sans-Serif" font-size="14.00">arpg_mechanics.py</text>
</g>
<!-- 484a7297&#45;9508&#45;405a&#45;8850&#45;175aabcc2ace&#45;&gt;e3233cc5&#45;611e&#45;4409&#45;9843&#45;2ffac2be70bf -->
<g id="edge2" class="edge">
<title>484a7297&#45;9508&#45;405a&#45;8850&#45;175aabcc2ace&#45;&gt;e3233cc5&#45;611e&#45;4409&#45;9843&#45;2ffac2be70bf</title>
<path fill="none" stroke="black" d="M337.13,-99.87C364.3,-99.87 391.46,-99.87 418.63,-99.87"/>
<polygon fill="black" stroke="black" points="418.64,-103.37 428.64,-99.87 418.64,-96.37 418.64,-103.37"/>
</g>
<!-- 8dd4109d&#45;c7d8&#45;45fe&#45;bfbf&#45;5fc968bccc2d -->
<g id="node6" class="node">
<title>8dd4109d&#45;c7d8&#45;45fe&#45;bfbf&#45;5fc968bccc2d</title>
<polygon fill="yellow" stroke="black" points="347,-36 0,-36 0,0 347,0 347,-36"/>
<text text-anchor="middle" x="173.5" y="-14.3" font-family="Helvetica,sans-Serif" font-size="14.00">⋯ Run GitHub Actions for `arpg_mechanics.py`</text>
</g>
<!-- 484a7297&#45;9508&#45;405a&#45;8850&#45;175aabcc2ace&#45;&gt;8dd4109d&#45;c7d8&#45;45fe&#45;bfbf&#45;5fc968bccc2d -->
<g id="edge1" class="edge">
<title>484a7297&#45;9508&#45;405a&#45;8850&#45;175aabcc2ace&#45;&gt;8dd4109d&#45;c7d8&#45;45fe&#45;bfbf&#45;5fc968bccc2d</title>
<path fill="none" stroke="black" stroke-dasharray="5,2" d="M211.47,-73.16C205.08,-64.04 197.88,-53.77 191.49,-44.65"/>
<polygon fill="black" stroke="black" points="194.26,-42.52 185.66,-36.34 188.53,-46.53 194.26,-42.52"/>
</g>
<!-- 3304a67d&#45;600a&#45;4ec8&#45;b173&#45;8bda85f494ee -->
<g id="node5" class="node">
<title>3304a67d&#45;600a&#45;4ec8&#45;b173&#45;8bda85f494ee</title>
<ellipse fill="white" stroke="black" cx="843.5" cy="-99.87" rx="108.38" ry="26.74"/>
<text text-anchor="middle" x="843.5" y="-103.67" font-family="Helvetica,sans-Serif" font-size="14.00">▶ Create</text>
<text text-anchor="middle" x="843.5" y="-88.67" font-family="Helvetica,sans-Serif" font-size="14.00">graph_generator.py</text>
</g>
<!-- e3233cc5&#45;611e&#45;4409&#45;9843&#45;2ffac2be70bf&#45;&gt;3304a67d&#45;600a&#45;4ec8&#45;b173&#45;8bda85f494ee -->
<g id="edge4" class="edge">
<title>e3233cc5&#45;611e&#45;4409&#45;9843&#45;2ffac2be70bf&#45;&gt;3304a67d&#45;600a&#45;4ec8&#45;b173&#45;8bda85f494ee</title>
<path fill="none" stroke="black" d="M644.13,-99.87C671.06,-99.87 697.99,-99.87 724.93,-99.87"/>
<polygon fill="black" stroke="black" points="725.25,-103.37 735.25,-99.87 725.25,-96.37 725.25,-103.37"/>
</g>
<!-- 5eb6f9b9&#45;72e1&#45;481a&#45;8328&#45;ef0ba18ad729 -->
<g id="node7" class="node">
<title>5eb6f9b9&#45;72e1&#45;481a&#45;8328&#45;ef0ba18ad729</title>
<polygon fill="white" stroke="black" points="708,-36 365,-36 365,0 708,0 708,-36"/>
<text text-anchor="middle" x="536.5" y="-14.3" font-family="Helvetica,sans-Serif" font-size="14.00">▶ Run GitHub Actions for `arpg_mechanics.py`</text>
</g>
<!-- e3233cc5&#45;611e&#45;4409&#45;9843&#45;2ffac2be70bf&#45;&gt;5eb6f9b9&#45;72e1&#45;481a&#45;8328&#45;ef0ba18ad729 -->
<g id="edge3" class="edge">
<title>e3233cc5&#45;611e&#45;4409&#45;9843&#45;2ffac2be70bf&#45;&gt;5eb6f9b9&#45;72e1&#45;481a&#45;8328&#45;ef0ba18ad729</title>
<path fill="none" stroke="black" stroke-dasharray="5,2" d="M536.5,-72.72C536.5,-64.27 536.5,-54.89 536.5,-46.36"/>
<polygon fill="black" stroke="black" points="540,-46.15 536.5,-36.15 533,-46.15 540,-46.15"/>
</g>
<!-- 3304a67d&#45;600a&#45;4ec8&#45;b173&#45;8bda85f494ee&#45;&gt;end -->
<g id="edge7" class="edge">
<title>3304a67d&#45;600a&#45;4ec8&#45;b173&#45;8bda85f494ee&#45;&gt;end</title>
<path fill="none" stroke="black" d="M951.91,-99.87C971.09,-99.87 988.26,-99.87 998.76,-99.87"/>
<polygon fill="black" stroke="black" points="998.83,-103.37 1008.83,-99.87 998.83,-96.37 998.83,-103.37"/>
<text text-anchor="middle" x="980.34" y="-106.67" font-family="Helvetica,sans-Serif" font-size="14.00">Finish</text>
</g>
<!-- bbda4d0b&#45;1e7c&#45;4c5e&#45;9ccb&#45;ba29d2a1d012 -->
<g id="node8" class="node">
<title>bbda4d0b&#45;1e7c&#45;4c5e&#45;9ccb&#45;ba29d2a1d012</title>
<polygon fill="white" stroke="black" points="1070.5,-36 726.5,-36 726.5,0 1070.5,0 1070.5,-36"/>
<text text-anchor="middle" x="898.5" y="-14.3" font-family="Helvetica,sans-Serif" font-size="14.00">▶ Run GitHub Actions for `graph_generator.py`</text>
</g>
<!-- 3304a67d&#45;600a&#45;4ec8&#45;b173&#45;8bda85f494ee&#45;&gt;bbda4d0b&#45;1e7c&#45;4c5e&#45;9ccb&#45;ba29d2a1d012 -->
<g id="edge5" class="edge">
<title>3304a67d&#45;600a&#45;4ec8&#45;b173&#45;8bda85f494ee&#45;&gt;bbda4d0b&#45;1e7c&#45;4c5e&#45;9ccb&#45;ba29d2a1d012</title>
<path fill="none" stroke="black" stroke-dasharray="5,2" d="M861.21,-73.16C867.49,-64.04 874.55,-53.77 880.83,-44.65"/>
<polygon fill="black" stroke="black" points="883.77,-46.56 886.56,-36.34 878.01,-42.59 883.77,-46.56"/>
</g>
</g>
</svg>
