<?xml version="1.0" encoding="UTF-8" standalone="no"?>
<!DOCTYPE svg PUBLIC "-//W3C//DTD SVG 1.1//EN"
 "http://www.w3.org/Graphics/SVG/1.1/DTD/svg11.dtd">
<!-- Generated by graphviz version 2.43.0 (0)
 -->
<!-- Title: %3 Pages: 1 -->
<svg width="1334pt" height="238pt"
 viewBox="0.00 0.00 1333.50 237.74" xmlns="http://www.w3.org/2000/svg" xmlns:xlink="http://www.w3.org/1999/xlink">
<g id="graph0" class="graph" transform="scale(1 1) rotate(0) translate(36 201.74)">
<title>%3</title>
<polygon fill="dimgray" stroke="transparent" points="-36,36 -36,-201.74 1297.5,-201.74 1297.5,36 -36,36"/>
<text text-anchor="middle" x="630.75" y="-150.54" font-family="Helvetica,sans-Serif" font-size="14.00">Sweep&#39;s Plan &amp; Progress</text>
<!-- start -->
<g id="node1" class="node">
<title>start</title>
</g>
<!-- 8d345987&#45;c83a&#45;45f5&#45;8f3b&#45;129cc70dc2cc -->
<g id="node3" class="node">
<title>8d345987&#45;c83a&#45;45f5&#45;8f3b&#45;129cc70dc2cc</title>
<ellipse fill="#0ee832" stroke="black" cx="233.5" cy="-99.87" rx="107.46" ry="26.74"/>
<text text-anchor="middle" x="233.5" y="-103.67" font-family="Helvetica,sans-Serif" font-size="14.00">✓ Create</text>
<text text-anchor="middle" x="233.5" y="-88.67" font-family="Helvetica,sans-Serif" font-size="14.00">arpg_mechanics.py</text>
</g>
<!-- start&#45;&gt;8d345987&#45;c83a&#45;45f5&#45;8f3b&#45;129cc70dc2cc -->
<g id="edge8" class="edge">
<title>start&#45;&gt;8d345987&#45;c83a&#45;45f5&#45;8f3b&#45;129cc70dc2cc</title>
<path fill="none" stroke="black" d="M75.21,-99.87C78.71,-99.87 94.82,-99.87 115.51,-99.87"/>
<polygon fill="black" stroke="black" points="115.65,-103.37 125.65,-99.87 115.65,-96.37 115.65,-103.37"/>
<text text-anchor="middle" x="100.51" y="-106.67" font-family="Helvetica,sans-Serif" font-size="14.00">Start</text>
</g>
<!-- end -->
<g id="node2" class="node">
<title>end</title>
</g>
<!-- 5509761a&#45;b53f&#45;4ac5&#45;bd90&#45;d7f712e2c604 -->
<g id="node4" class="node">
<title>5509761a&#45;b53f&#45;4ac5&#45;bd90&#45;d7f712e2c604</title>
<ellipse fill="white" stroke="black" cx="490.5" cy="-99.87" rx="54.39" ry="26.74"/>
<text text-anchor="middle" x="490.5" y="-103.67" font-family="Helvetica,sans-Serif" font-size="14.00">▶ Modify</text>
<text text-anchor="middle" x="490.5" y="-88.67" font-family="Helvetica,sans-Serif" font-size="14.00">init.py</text>
</g>
<!-- 8d345987&#45;c83a&#45;45f5&#45;8f3b&#45;129cc70dc2cc&#45;&gt;5509761a&#45;b53f&#45;4ac5&#45;bd90&#45;d7f712e2c604 -->
<g id="edge2" class="edge">
<title>8d345987&#45;c83a&#45;45f5&#45;8f3b&#45;129cc70dc2cc&#45;&gt;5509761a&#45;b53f&#45;4ac5&#45;bd90&#45;d7f712e2c604</title>
<path fill="none" stroke="black" d="M341.17,-99.87C369.31,-99.87 397.45,-99.87 425.59,-99.87"/>
<polygon fill="black" stroke="black" points="425.96,-103.37 435.96,-99.87 425.96,-96.37 425.96,-103.37"/>
</g>
<!-- 4467e244&#45;879c&#45;4bca&#45;80cc&#45;77c820e2206a -->
<g id="node7" class="node">
<title>4467e244&#45;879c&#45;4bca&#45;80cc&#45;77c820e2206a</title>
<polygon fill="yellow" stroke="black" points="347,-36 0,-36 0,0 347,0 347,-36"/>
<text text-anchor="middle" x="173.5" y="-14.3" font-family="Helvetica,sans-Serif" font-size="14.00">⋯ Run GitHub Actions for `arpg_mechanics.py`</text>
</g>
<!-- 8d345987&#45;c83a&#45;45f5&#45;8f3b&#45;129cc70dc2cc&#45;&gt;4467e244&#45;879c&#45;4bca&#45;80cc&#45;77c820e2206a -->
<g id="edge1" class="edge">
<title>8d345987&#45;c83a&#45;45f5&#45;8f3b&#45;129cc70dc2cc&#45;&gt;4467e244&#45;879c&#45;4bca&#45;80cc&#45;77c820e2206a</title>
<path fill="none" stroke="black" stroke-dasharray="5,2" d="M214.19,-73.16C207.26,-63.94 199.46,-53.56 192.56,-44.37"/>
<polygon fill="black" stroke="black" points="195.33,-42.23 186.52,-36.34 189.73,-46.43 195.33,-42.23"/>
</g>
<!-- 456a041d&#45;2ffb&#45;4246&#45;a0c6&#45;8e36e2d9054d -->
<g id="node5" class="node">
<title>456a041d&#45;2ffb&#45;4246&#45;a0c6&#45;8e36e2d9054d</title>
<ellipse fill="white" stroke="black" cx="803.5" cy="-99.87" rx="104.8" ry="26.74"/>
<text text-anchor="middle" x="803.5" y="-103.67" font-family="Helvetica,sans-Serif" font-size="14.00">▶ Modify</text>
<text text-anchor="middle" x="803.5" y="-88.67" font-family="Helvetica,sans-Serif" font-size="14.00">target&#45;projectile.py</text>
</g>
<!-- 5509761a&#45;b53f&#45;4ac5&#45;bd90&#45;d7f712e2c604&#45;&gt;456a041d&#45;2ffb&#45;4246&#45;a0c6&#45;8e36e2d9054d -->
<g id="edge4" class="edge">
<title>5509761a&#45;b53f&#45;4ac5&#45;bd90&#45;d7f712e2c604&#45;&gt;456a041d&#45;2ffb&#45;4246&#45;a0c6&#45;8e36e2d9054d</title>
<path fill="none" stroke="black" d="M545.21,-99.87C593.02,-99.87 640.82,-99.87 688.62,-99.87"/>
<polygon fill="black" stroke="black" points="688.82,-103.37 698.82,-99.87 688.82,-96.37 688.82,-103.37"/>
</g>
<!-- dd999c6f&#45;785a&#45;4d41&#45;bfe7&#45;930a87ece16e -->
<g id="node8" class="node">
<title>dd999c6f&#45;785a&#45;4d41&#45;bfe7&#45;930a87ece16e</title>
<polygon fill="white" stroke="black" points="616,-36 365,-36 365,0 616,0 616,-36"/>
<text text-anchor="middle" x="490.5" y="-14.3" font-family="Helvetica,sans-Serif" font-size="14.00">▶ Run GitHub Actions for `init.py`</text>
</g>
<!-- 5509761a&#45;b53f&#45;4ac5&#45;bd90&#45;d7f712e2c604&#45;&gt;dd999c6f&#45;785a&#45;4d41&#45;bfe7&#45;930a87ece16e -->
<g id="edge3" class="edge">
<title>5509761a&#45;b53f&#45;4ac5&#45;bd90&#45;d7f712e2c604&#45;&gt;dd999c6f&#45;785a&#45;4d41&#45;bfe7&#45;930a87ece16e</title>
<path fill="none" stroke="black" stroke-dasharray="5,2" d="M490.5,-72.72C490.5,-64.27 490.5,-54.89 490.5,-46.36"/>
<polygon fill="black" stroke="black" points="494,-46.15 490.5,-36.15 487,-46.15 494,-46.15"/>
</g>
<!-- 72fbb9a0&#45;eb1a&#45;4b62&#45;83b5&#45;0423c325b514 -->
<g id="node6" class="node">
<title>72fbb9a0&#45;eb1a&#45;4b62&#45;83b5&#45;0423c325b514</title>
<ellipse fill="white" stroke="black" cx="1063.5" cy="-99.87" rx="55.72" ry="26.74"/>
<text text-anchor="middle" x="1063.5" y="-103.67" font-family="Helvetica,sans-Serif" font-size="14.00">▶ Modify</text>
<text text-anchor="middle" x="1063.5" y="-88.67" font-family="Helvetica,sans-Serif" font-size="14.00">script.txt</text>
</g>
<!-- 456a041d&#45;2ffb&#45;4246&#45;a0c6&#45;8e36e2d9054d&#45;&gt;72fbb9a0&#45;eb1a&#45;4b62&#45;83b5&#45;0423c325b514 -->
<g id="edge6" class="edge">
<title>456a041d&#45;2ffb&#45;4246&#45;a0c6&#45;8e36e2d9054d&#45;&gt;72fbb9a0&#45;eb1a&#45;4b62&#45;83b5&#45;0423c325b514</title>
<path fill="none" stroke="black" d="M908.36,-99.87C938.04,-99.87 967.71,-99.87 997.38,-99.87"/>
<polygon fill="black" stroke="black" points="997.44,-103.37 1007.44,-99.87 997.44,-96.37 997.44,-103.37"/>
</g>
<!-- 84638b25&#45;eb21&#45;4321&#45;a069&#45;3ba25fbf7a06 -->
<g id="node9" class="node">
<title>84638b25&#45;eb21&#45;4321&#45;a069&#45;3ba25fbf7a06</title>
<polygon fill="white" stroke="black" points="973,-36 634,-36 634,0 973,0 973,-36"/>
<text text-anchor="middle" x="803.5" y="-14.3" font-family="Helvetica,sans-Serif" font-size="14.00">▶ Run GitHub Actions for `target&#45;projectile.py`</text>
</g>
<!-- 456a041d&#45;2ffb&#45;4246&#45;a0c6&#45;8e36e2d9054d&#45;&gt;84638b25&#45;eb21&#45;4321&#45;a069&#45;3ba25fbf7a06 -->
<g id="edge5" class="edge">
<title>456a041d&#45;2ffb&#45;4246&#45;a0c6&#45;8e36e2d9054d&#45;&gt;84638b25&#45;eb21&#45;4321&#45;a069&#45;3ba25fbf7a06</title>
<path fill="none" stroke="black" stroke-dasharray="5,2" d="M803.5,-72.72C803.5,-64.27 803.5,-54.89 803.5,-46.36"/>
<polygon fill="black" stroke="black" points="807,-46.15 803.5,-36.15 800,-46.15 807,-46.15"/>
</g>
<!-- 72fbb9a0&#45;eb1a&#45;4b62&#45;83b5&#45;0423c325b514&#45;&gt;end -->
<g id="edge9" class="edge">
<title>72fbb9a0&#45;eb1a&#45;4b62&#45;83b5&#45;0423c325b514&#45;&gt;end</title>
<path fill="none" stroke="black" d="M1119.5,-99.87C1137.46,-99.87 1155.56,-99.87 1166.65,-99.87"/>
<polygon fill="black" stroke="black" points="1166.76,-103.37 1176.76,-99.87 1166.76,-96.37 1166.76,-103.37"/>
<text text-anchor="middle" x="1148.18" y="-106.67" font-family="Helvetica,sans-Serif" font-size="14.00">Finish</text>
</g>
<!-- 97551997&#45;1d20&#45;49a5&#45;a06e&#45;f4e745f7bf5f -->
<g id="node10" class="node">
<title>97551997&#45;1d20&#45;49a5&#45;a06e&#45;f4e745f7bf5f</title>
<polygon fill="white" stroke="black" points="1261.5,-36 991.5,-36 991.5,0 1261.5,0 1261.5,-36"/>
<text text-anchor="middle" x="1126.5" y="-14.3" font-family="Helvetica,sans-Serif" font-size="14.00">▶ Run GitHub Actions for `script.txt`</text>
</g>
<!-- 72fbb9a0&#45;eb1a&#45;4b62&#45;83b5&#45;0423c325b514&#45;&gt;97551997&#45;1d20&#45;49a5&#45;a06e&#45;f4e745f7bf5f -->
<g id="edge7" class="edge">
<title>72fbb9a0&#45;eb1a&#45;4b62&#45;83b5&#45;0423c325b514&#45;&gt;97551997&#45;1d20&#45;49a5&#45;a06e&#45;f4e745f7bf5f</title>
<path fill="none" stroke="black" stroke-dasharray="5,2" d="M1082.74,-74.47C1090.3,-64.89 1098.97,-53.9 1106.59,-44.24"/>
<polygon fill="black" stroke="black" points="1109.52,-46.18 1112.96,-36.16 1104.02,-41.85 1109.52,-46.18"/>
</g>
</g>
</svg>
