<?xml version="1.0" encoding="UTF-8" standalone="no"?>
<!DOCTYPE svg PUBLIC "-//W3C//DTD SVG 1.1//EN"
 "http://www.w3.org/Graphics/SVG/1.1/DTD/svg11.dtd">
<!-- Generated by graphviz version 2.43.0 (0)
 -->
<!-- Title: %3 Pages: 1 -->
<svg width="1330pt" height="238pt"
 viewBox="0.00 0.00 1329.50 237.74" xmlns="http://www.w3.org/2000/svg" xmlns:xlink="http://www.w3.org/1999/xlink">
<g id="graph0" class="graph" transform="scale(1 1) rotate(0) translate(36 201.74)">
<title>%3</title>
<polygon fill="dimgray" stroke="transparent" points="-36,36 -36,-201.74 1293.5,-201.74 1293.5,36 -36,36"/>
<text text-anchor="middle" x="628.75" y="-150.54" font-family="Helvetica,sans-Serif" font-size="14.00">Sweep&#39;s Plan &amp; Progress</text>
<!-- start -->
<g id="node1" class="node">
<title>start</title>
</g>
<!-- 8d345987&#45;c83a&#45;45f5&#45;8f3b&#45;129cc70dc2cc -->
<g id="node3" class="node">
<title>8d345987&#45;c83a&#45;45f5&#45;8f3b&#45;129cc70dc2cc</title>
<ellipse fill="yellow" stroke="black" cx="230.5" cy="-99.87" rx="107.46" ry="26.74"/>
<text text-anchor="middle" x="230.5" y="-103.67" font-family="Helvetica,sans-Serif" font-size="14.00">⋯ Create</text>
<text text-anchor="middle" x="230.5" y="-88.67" font-family="Helvetica,sans-Serif" font-size="14.00">arpg_mechanics.py</text>
</g>
<!-- start&#45;&gt;8d345987&#45;c83a&#45;45f5&#45;8f3b&#45;129cc70dc2cc -->
<g id="edge8" class="edge">
<title>start&#45;&gt;8d345987&#45;c83a&#45;45f5&#45;8f3b&#45;129cc70dc2cc</title>
<path fill="none" stroke="black" d="M72.21,-99.87C75.71,-99.87 91.82,-99.87 112.51,-99.87"/>
<polygon fill="black" stroke="black" points="112.65,-103.37 122.65,-99.87 112.65,-96.37 112.65,-103.37"/>
<text text-anchor="middle" x="97.51" y="-106.67" font-family="Helvetica,sans-Serif" font-size="14.00">Start</text>
</g>
<!-- end -->
<g id="node2" class="node">
<title>end</title>
</g>
<!-- 5509761a&#45;b53f&#45;4ac5&#45;bd90&#45;d7f712e2c604 -->
<g id="node4" class="node">
<title>5509761a&#45;b53f&#45;4ac5&#45;bd90&#45;d7f712e2c604</title>
<ellipse fill="white" stroke="black" cx="486.5" cy="-99.87" rx="54.39" ry="26.74"/>
<text text-anchor="middle" x="486.5" y="-103.67" font-family="Helvetica,sans-Serif" font-size="14.00">▶ Modify</text>
<text text-anchor="middle" x="486.5" y="-88.67" font-family="Helvetica,sans-Serif" font-size="14.00">init.py</text>
</g>
<!-- 8d345987&#45;c83a&#45;45f5&#45;8f3b&#45;129cc70dc2cc&#45;&gt;5509761a&#45;b53f&#45;4ac5&#45;bd90&#45;d7f712e2c604 -->
<g id="edge2" class="edge">
<title>8d345987&#45;c83a&#45;45f5&#45;8f3b&#45;129cc70dc2cc&#45;&gt;5509761a&#45;b53f&#45;4ac5&#45;bd90&#45;d7f712e2c604</title>
<path fill="none" stroke="black" d="M338,-99.87C365.9,-99.87 393.8,-99.87 421.69,-99.87"/>
<polygon fill="black" stroke="black" points="421.97,-103.37 431.97,-99.87 421.97,-96.37 421.97,-103.37"/>
</g>
<!-- 4467e244&#45;879c&#45;4bca&#45;80cc&#45;77c820e2206a -->
<g id="node7" class="node">
<title>4467e244&#45;879c&#45;4bca&#45;80cc&#45;77c820e2206a</title>
<polygon fill="white" stroke="black" points="343,-36 0,-36 0,0 343,0 343,-36"/>
<text text-anchor="middle" x="171.5" y="-14.3" font-family="Helvetica,sans-Serif" font-size="14.00">▶ Run GitHub Actions for `arpg_mechanics.py`</text>
</g>
<!-- 8d345987&#45;c83a&#45;45f5&#45;8f3b&#45;129cc70dc2cc&#45;&gt;4467e244&#45;879c&#45;4bca&#45;80cc&#45;77c820e2206a -->
<g id="edge1" class="edge">
<title>8d345987&#45;c83a&#45;45f5&#45;8f3b&#45;129cc70dc2cc&#45;&gt;4467e244&#45;879c&#45;4bca&#45;80cc&#45;77c820e2206a</title>
<path fill="none" stroke="black" stroke-dasharray="5,2" d="M211.51,-73.16C204.77,-64.04 197.19,-53.77 190.45,-44.65"/>
<polygon fill="black" stroke="black" points="193.06,-42.3 184.31,-36.34 187.43,-46.46 193.06,-42.3"/>
</g>
<!-- 456a041d&#45;2ffb&#45;4246&#45;a0c6&#45;8e36e2d9054d -->
<g id="node5" class="node">
<title>456a041d&#45;2ffb&#45;4246&#45;a0c6&#45;8e36e2d9054d</title>
<ellipse fill="white" stroke="black" cx="799.5" cy="-99.87" rx="104.8" ry="26.74"/>
<text text-anchor="middle" x="799.5" y="-103.67" font-family="Helvetica,sans-Serif" font-size="14.00">▶ Modify</text>
<text text-anchor="middle" x="799.5" y="-88.67" font-family="Helvetica,sans-Serif" font-size="14.00">target&#45;projectile.py</text>
</g>
<!-- 5509761a&#45;b53f&#45;4ac5&#45;bd90&#45;d7f712e2c604&#45;&gt;456a041d&#45;2ffb&#45;4246&#45;a0c6&#45;8e36e2d9054d -->
<g id="edge4" class="edge">
<title>5509761a&#45;b53f&#45;4ac5&#45;bd90&#45;d7f712e2c604&#45;&gt;456a041d&#45;2ffb&#45;4246&#45;a0c6&#45;8e36e2d9054d</title>
<path fill="none" stroke="black" d="M541.21,-99.87C589.02,-99.87 636.82,-99.87 684.62,-99.87"/>
<polygon fill="black" stroke="black" points="684.82,-103.37 694.82,-99.87 684.82,-96.37 684.82,-103.37"/>
</g>
<!-- dd999c6f&#45;785a&#45;4d41&#45;bfe7&#45;930a87ece16e -->
<g id="node8" class="node">
<title>dd999c6f&#45;785a&#45;4d41&#45;bfe7&#45;930a87ece16e</title>
<polygon fill="white" stroke="black" points="612,-36 361,-36 361,0 612,0 612,-36"/>
<text text-anchor="middle" x="486.5" y="-14.3" font-family="Helvetica,sans-Serif" font-size="14.00">▶ Run GitHub Actions for `init.py`</text>
</g>
<!-- 5509761a&#45;b53f&#45;4ac5&#45;bd90&#45;d7f712e2c604&#45;&gt;dd999c6f&#45;785a&#45;4d41&#45;bfe7&#45;930a87ece16e -->
<g id="edge3" class="edge">
<title>5509761a&#45;b53f&#45;4ac5&#45;bd90&#45;d7f712e2c604&#45;&gt;dd999c6f&#45;785a&#45;4d41&#45;bfe7&#45;930a87ece16e</title>
<path fill="none" stroke="black" stroke-dasharray="5,2" d="M486.5,-72.72C486.5,-64.27 486.5,-54.89 486.5,-46.36"/>
<polygon fill="black" stroke="black" points="490,-46.15 486.5,-36.15 483,-46.15 490,-46.15"/>
</g>
<!-- 72fbb9a0&#45;eb1a&#45;4b62&#45;83b5&#45;0423c325b514 -->
<g id="node6" class="node">
<title>72fbb9a0&#45;eb1a&#45;4b62&#45;83b5&#45;0423c325b514</title>
<ellipse fill="white" stroke="black" cx="1059.5" cy="-99.87" rx="55.72" ry="26.74"/>
<text text-anchor="middle" x="1059.5" y="-103.67" font-family="Helvetica,sans-Serif" font-size="14.00">▶ Modify</text>
<text text-anchor="middle" x="1059.5" y="-88.67" font-family="Helvetica,sans-Serif" font-size="14.00">script.txt</text>
</g>
<!-- 456a041d&#45;2ffb&#45;4246&#45;a0c6&#45;8e36e2d9054d&#45;&gt;72fbb9a0&#45;eb1a&#45;4b62&#45;83b5&#45;0423c325b514 -->
<g id="edge6" class="edge">
<title>456a041d&#45;2ffb&#45;4246&#45;a0c6&#45;8e36e2d9054d&#45;&gt;72fbb9a0&#45;eb1a&#45;4b62&#45;83b5&#45;0423c325b514</title>
<path fill="none" stroke="black" d="M904.36,-99.87C934.04,-99.87 963.71,-99.87 993.38,-99.87"/>
<polygon fill="black" stroke="black" points="993.44,-103.37 1003.44,-99.87 993.44,-96.37 993.44,-103.37"/>
</g>
<!-- 84638b25&#45;eb21&#45;4321&#45;a069&#45;3ba25fbf7a06 -->
<g id="node9" class="node">
<title>84638b25&#45;eb21&#45;4321&#45;a069&#45;3ba25fbf7a06</title>
<polygon fill="white" stroke="black" points="969,-36 630,-36 630,0 969,0 969,-36"/>
<text text-anchor="middle" x="799.5" y="-14.3" font-family="Helvetica,sans-Serif" font-size="14.00">▶ Run GitHub Actions for `target&#45;projectile.py`</text>
</g>
<!-- 456a041d&#45;2ffb&#45;4246&#45;a0c6&#45;8e36e2d9054d&#45;&gt;84638b25&#45;eb21&#45;4321&#45;a069&#45;3ba25fbf7a06 -->
<g id="edge5" class="edge">
<title>456a041d&#45;2ffb&#45;4246&#45;a0c6&#45;8e36e2d9054d&#45;&gt;84638b25&#45;eb21&#45;4321&#45;a069&#45;3ba25fbf7a06</title>
<path fill="none" stroke="black" stroke-dasharray="5,2" d="M799.5,-72.72C799.5,-64.27 799.5,-54.89 799.5,-46.36"/>
<polygon fill="black" stroke="black" points="803,-46.15 799.5,-36.15 796,-46.15 803,-46.15"/>
</g>
<!-- 72fbb9a0&#45;eb1a&#45;4b62&#45;83b5&#45;0423c325b514&#45;&gt;end -->
<g id="edge9" class="edge">
<title>72fbb9a0&#45;eb1a&#45;4b62&#45;83b5&#45;0423c325b514&#45;&gt;end</title>
<path fill="none" stroke="black" d="M1115.5,-99.87C1133.46,-99.87 1151.56,-99.87 1162.65,-99.87"/>
<polygon fill="black" stroke="black" points="1162.76,-103.37 1172.76,-99.87 1162.76,-96.37 1162.76,-103.37"/>
<text text-anchor="middle" x="1144.18" y="-106.67" font-family="Helvetica,sans-Serif" font-size="14.00">Finish</text>
</g>
<!-- 97551997&#45;1d20&#45;49a5&#45;a06e&#45;f4e745f7bf5f -->
<g id="node10" class="node">
<title>97551997&#45;1d20&#45;49a5&#45;a06e&#45;f4e745f7bf5f</title>
<polygon fill="white" stroke="black" points="1257.5,-36 987.5,-36 987.5,0 1257.5,0 1257.5,-36"/>
<text text-anchor="middle" x="1122.5" y="-14.3" font-family="Helvetica,sans-Serif" font-size="14.00">▶ Run GitHub Actions for `script.txt`</text>
</g>
<!-- 72fbb9a0&#45;eb1a&#45;4b62&#45;83b5&#45;0423c325b514&#45;&gt;97551997&#45;1d20&#45;49a5&#45;a06e&#45;f4e745f7bf5f -->
<g id="edge7" class="edge">
<title>72fbb9a0&#45;eb1a&#45;4b62&#45;83b5&#45;0423c325b514&#45;&gt;97551997&#45;1d20&#45;49a5&#45;a06e&#45;f4e745f7bf5f</title>
<path fill="none" stroke="black" stroke-dasharray="5,2" d="M1078.74,-74.47C1086.3,-64.89 1094.97,-53.9 1102.59,-44.24"/>
<polygon fill="black" stroke="black" points="1105.52,-46.18 1108.96,-36.16 1100.02,-41.85 1105.52,-46.18"/>
</g>
</g>
</svg>
