<?xml version="1.0" encoding="UTF-8" standalone="no"?>
<!DOCTYPE svg PUBLIC "-//W3C//DTD SVG 1.1//EN"
 "http://www.w3.org/Graphics/SVG/1.1/DTD/svg11.dtd">
<!-- Generated by graphviz version 2.43.0 (0)
 -->
<!-- Title: %3 Pages: 1 -->
<svg width="1140pt" height="238pt"
 viewBox="0.00 0.00 1140.00 237.74" xmlns="http://www.w3.org/2000/svg" xmlns:xlink="http://www.w3.org/1999/xlink">
<g id="graph0" class="graph" transform="scale(1 1) rotate(0) translate(36 201.74)">
<title>%3</title>
<polygon fill="dimgray" stroke="transparent" points="-36,36 -36,-201.74 1104,-201.74 1104,36 -36,36"/>
<text text-anchor="middle" x="534" y="-150.54" font-family="Helvetica,sans-Serif" font-size="14.00">Sweep&#39;s Plan &amp; Progress</text>
<!-- start -->
<g id="node1" class="node">
<title>start</title>
</g>
<!-- 484a7297&#45;9508&#45;405a&#45;8850&#45;175aabcc2ace -->
<g id="node3" class="node">
<title>484a7297&#45;9508&#45;405a&#45;8850&#45;175aabcc2ace</title>
<ellipse fill="#0ee832" stroke="black" cx="228" cy="-99.87" rx="107.46" ry="26.74"/>
<text text-anchor="middle" x="228" y="-103.67" font-family="Helvetica,sans-Serif" font-size="14.00">✓ Modify</text>
<text text-anchor="middle" x="228" y="-88.67" font-family="Helvetica,sans-Serif" font-size="14.00">arpg_mechanics.py</text>
</g>
<!-- start&#45;&gt;484a7297&#45;9508&#45;405a&#45;8850&#45;175aabcc2ace -->
<g id="edge6" class="edge">
<title>start&#45;&gt;484a7297&#45;9508&#45;405a&#45;8850&#45;175aabcc2ace</title>
<path fill="none" stroke="black" d="M69.71,-99.87C73.21,-99.87 89.32,-99.87 110.01,-99.87"/>
<polygon fill="black" stroke="black" points="110.15,-103.37 120.15,-99.87 110.15,-96.37 110.15,-103.37"/>
<text text-anchor="middle" x="95.01" y="-106.67" font-family="Helvetica,sans-Serif" font-size="14.00">Start</text>
</g>
<!-- end -->
<g id="node2" class="node">
<title>end</title>
</g>
<!-- e3233cc5&#45;611e&#45;4409&#45;9843&#45;2ffac2be70bf -->
<g id="node4" class="node">
<title>e3233cc5&#45;611e&#45;4409&#45;9843&#45;2ffac2be70bf</title>
<ellipse fill="#0ee832" stroke="black" cx="534" cy="-99.87" rx="107.46" ry="26.74"/>
<text text-anchor="middle" x="534" y="-103.67" font-family="Helvetica,sans-Serif" font-size="14.00">✓ Modify</text>
<text text-anchor="middle" x="534" y="-88.67" font-family="Helvetica,sans-Serif" font-size="14.00">arpg_mechanics.py</text>
</g>
<!-- 484a7297&#45;9508&#45;405a&#45;8850&#45;175aabcc2ace&#45;&gt;e3233cc5&#45;611e&#45;4409&#45;9843&#45;2ffac2be70bf -->
<g id="edge2" class="edge">
<title>484a7297&#45;9508&#45;405a&#45;8850&#45;175aabcc2ace&#45;&gt;e3233cc5&#45;611e&#45;4409&#45;9843&#45;2ffac2be70bf</title>
<path fill="none" stroke="black" d="M335.58,-99.87C362.38,-99.87 389.19,-99.87 415.99,-99.87"/>
<polygon fill="black" stroke="black" points="416.26,-103.37 426.26,-99.87 416.26,-96.37 416.26,-103.37"/>
</g>
<!-- 8dd4109d&#45;c7d8&#45;45fe&#45;bfbf&#45;5fc968bccc2d -->
<g id="node6" class="node">
<title>8dd4109d&#45;c7d8&#45;45fe&#45;bfbf&#45;5fc968bccc2d</title>
<polygon fill="#0ee832" stroke="black" points="344,-36 0,-36 0,0 344,0 344,-36"/>
<text text-anchor="middle" x="172" y="-14.3" font-family="Helvetica,sans-Serif" font-size="14.00">✓ Run GitHub Actions for `arpg_mechanics.py`</text>
</g>
<!-- 484a7297&#45;9508&#45;405a&#45;8850&#45;175aabcc2ace&#45;&gt;8dd4109d&#45;c7d8&#45;45fe&#45;bfbf&#45;5fc968bccc2d -->
<g id="edge1" class="edge">
<title>484a7297&#45;9508&#45;405a&#45;8850&#45;175aabcc2ace&#45;&gt;8dd4109d&#45;c7d8&#45;45fe&#45;bfbf&#45;5fc968bccc2d</title>
<path fill="none" stroke="black" stroke-dasharray="5,2" d="M209.97,-73.16C203.58,-64.04 196.38,-53.77 189.99,-44.65"/>
<polygon fill="black" stroke="black" points="192.76,-42.52 184.16,-36.34 187.03,-46.53 192.76,-42.52"/>
</g>
<!-- 3304a67d&#45;600a&#45;4ec8&#45;b173&#45;8bda85f494ee -->
<g id="node5" class="node">
<title>3304a67d&#45;600a&#45;4ec8&#45;b173&#45;8bda85f494ee</title>
<ellipse fill="white" stroke="black" cx="841" cy="-99.87" rx="108.38" ry="26.74"/>
<text text-anchor="middle" x="841" y="-103.67" font-family="Helvetica,sans-Serif" font-size="14.00">▶ Create</text>
<text text-anchor="middle" x="841" y="-88.67" font-family="Helvetica,sans-Serif" font-size="14.00">graph_generator.py</text>
</g>
<!-- e3233cc5&#45;611e&#45;4409&#45;9843&#45;2ffac2be70bf&#45;&gt;3304a67d&#45;600a&#45;4ec8&#45;b173&#45;8bda85f494ee -->
<g id="edge4" class="edge">
<title>e3233cc5&#45;611e&#45;4409&#45;9843&#45;2ffac2be70bf&#45;&gt;3304a67d&#45;600a&#45;4ec8&#45;b173&#45;8bda85f494ee</title>
<path fill="none" stroke="black" d="M641.63,-99.87C668.56,-99.87 695.49,-99.87 722.43,-99.87"/>
<polygon fill="black" stroke="black" points="722.75,-103.37 732.75,-99.87 722.75,-96.37 722.75,-103.37"/>
</g>
<!-- 5eb6f9b9&#45;72e1&#45;481a&#45;8328&#45;ef0ba18ad729 -->
<g id="node7" class="node">
<title>5eb6f9b9&#45;72e1&#45;481a&#45;8328&#45;ef0ba18ad729</title>
<polygon fill="#0ee832" stroke="black" points="706,-36 362,-36 362,0 706,0 706,-36"/>
<text text-anchor="middle" x="534" y="-14.3" font-family="Helvetica,sans-Serif" font-size="14.00">✓ Run GitHub Actions for `arpg_mechanics.py`</text>
</g>
<!-- e3233cc5&#45;611e&#45;4409&#45;9843&#45;2ffac2be70bf&#45;&gt;5eb6f9b9&#45;72e1&#45;481a&#45;8328&#45;ef0ba18ad729 -->
<g id="edge3" class="edge">
<title>e3233cc5&#45;611e&#45;4409&#45;9843&#45;2ffac2be70bf&#45;&gt;5eb6f9b9&#45;72e1&#45;481a&#45;8328&#45;ef0ba18ad729</title>
<path fill="none" stroke="black" stroke-dasharray="5,2" d="M534,-72.72C534,-64.27 534,-54.89 534,-46.36"/>
<polygon fill="black" stroke="black" points="537.5,-46.15 534,-36.15 530.5,-46.15 537.5,-46.15"/>
</g>
<!-- 3304a67d&#45;600a&#45;4ec8&#45;b173&#45;8bda85f494ee&#45;&gt;end -->
<g id="edge7" class="edge">
<title>3304a67d&#45;600a&#45;4ec8&#45;b173&#45;8bda85f494ee&#45;&gt;end</title>
<path fill="none" stroke="black" d="M949.41,-99.87C968.59,-99.87 985.76,-99.87 996.26,-99.87"/>
<polygon fill="black" stroke="black" points="996.33,-103.37 1006.33,-99.87 996.33,-96.37 996.33,-103.37"/>
<text text-anchor="middle" x="977.84" y="-106.67" font-family="Helvetica,sans-Serif" font-size="14.00">Finish</text>
</g>
<!-- bbda4d0b&#45;1e7c&#45;4c5e&#45;9ccb&#45;ba29d2a1d012 -->
<g id="node8" class="node">
<title>bbda4d0b&#45;1e7c&#45;4c5e&#45;9ccb&#45;ba29d2a1d012</title>
<polygon fill="white" stroke="black" points="1068,-36 724,-36 724,0 1068,0 1068,-36"/>
<text text-anchor="middle" x="896" y="-14.3" font-family="Helvetica,sans-Serif" font-size="14.00">▶ Run GitHub Actions for `graph_generator.py`</text>
</g>
<!-- 3304a67d&#45;600a&#45;4ec8&#45;b173&#45;8bda85f494ee&#45;&gt;bbda4d0b&#45;1e7c&#45;4c5e&#45;9ccb&#45;ba29d2a1d012 -->
<g id="edge5" class="edge">
<title>3304a67d&#45;600a&#45;4ec8&#45;b173&#45;8bda85f494ee&#45;&gt;bbda4d0b&#45;1e7c&#45;4c5e&#45;9ccb&#45;ba29d2a1d012</title>
<path fill="none" stroke="black" stroke-dasharray="5,2" d="M858.71,-73.16C864.99,-64.04 872.05,-53.77 878.33,-44.65"/>
<polygon fill="black" stroke="black" points="881.27,-46.56 884.06,-36.34 875.51,-42.59 881.27,-46.56"/>
</g>
</g>
</svg>
